<?xml version="1.0" encoding="UTF-8"?>
<!-- Created with Inkscape (http://www.inkscape.org/) -->
<svg width="443.2" height="124.48" version="1.1" viewBox="0 0 443.2 124.48" xmlns="http://www.w3.org/2000/svg">
 <path d="m26.878 109.02-26.718-15.458v-62.648l26.718-15.458c14.695-8.5019 26.797-15.458 26.892-15.458 0.095856 0 12.193 6.9571 26.882 15.46l26.708 15.46v62.639l-26.708 15.46c-14.689 8.5031-26.786 15.46-26.882 15.46-0.09586 0-12.197-6.9561-26.892-15.458zm26.882-19.422v-9.6h33.92v-7.36h-26.812l0.30343-1.3504c0.69862-3.1093 2.3565-4.66 10.135-9.4791 6.9648-4.3153 9.2392-5.9699 11.849-8.6201 2.4015-2.439 3.7341-5.042 4.1725-8.1503 1.3644-9.6739-5.4641-15.928-17.378-15.916-4.9168 0.0048-8.9955 0.95595-13.229 3.0849l-2.96 1.4886v3.9513c0 2.1732 0.05603 3.9513 0.12452 3.9513 0.06848 0 1.1125-0.57846 2.32-1.2855 4.8148-2.8191 9.4009-4.0236 14.323-3.7619 6.3211 0.33607 9.6606 3.5359 8.5793 8.2204-0.74323 3.2199-2.5622 5.1287-7.9934 8.3886-9.8093 5.8875-13.877 9.0271-16.239 12.535l-1.1146 1.6551v-18.41l-8.759 0.17806-26.441 32.488v3.6761 3.6761h27.2v10.24h8zm-25.92-8.1555c0-0.15066 16.594-20.65 17.48-21.593 0.37374-0.3981 0.43989 1.202 0.43989 10.64v11.109h-8.96c-4.928 0-8.96-0.06998-8.96-0.15551zm123.84 8.7953c-7.0248-0.69052-13.088-3.5056-17.92-8.3198-4.1918-4.1765-6.1473-8.1632-7.0575-14.388-0.52217-3.5712-0.21819-9.9427 0.63417-13.292 3.3243-13.063 16.429-21.326 31.698-19.987 4.3616 0.38275 7.8806 1.2835 10.886 2.7863l2.4 1.2002 0.0885 5.1072c0.0487 2.8089 0.0183 5.2901-0.0676 5.5137-0.11088 0.28896-0.69198 0.08971-2.0085-0.68865-2.0409-1.2066-4.4398-2.1356-7.1324-2.7619-2.3921-0.55644-8.3339-0.55272-10.88 0.0068-4.5687 1.004-8.732 3.6024-10.847 6.7697-1.9724 2.9538-2.6575 5.4792-2.6836 9.8932-0.0346 5.8543 1.2328 9.1603 4.7857 12.484 2.0809 1.9466 5.411 3.7591 8.1049 4.4113 5.694 1.3785 13.563 0.34293 19.28-2.5373l1.84-0.92701v11.232l-1.52 0.65242c-5.2512 2.2539-13.472 3.447-19.6 2.8446zm87.629-0.01727c-9.7392-1.0613-16.605-7.585-18.168-17.263-0.20524-1.2706-0.33691-8.9596-0.33839-19.76l-2e-3 -17.68h12.16l4e-3 17.2c4e-3 18.558 0.0477 19.113 1.7222 21.971 1.6149 2.7556 3.9495 4.1336 7.994 4.7184 6.0863 0.87998 11.725-1.5509 15.926-6.8658l1.2338-1.5609v-35.463h12.16v53.44h-10.88v-6.8559l-1.52 1.4536c-5.5939 5.3497-12.261 7.5397-20.291 6.6648zm123.89 0.02341c-9.5747-0.96568-18.462-6.5813-22.214-14.036-3.5427-7.0395-3.9896-16.672-1.1527-24.847 2.6481-7.6313 10.2-13.966 19.467-16.331 3.0779-0.78534 7.5462-1.1047 11.056-0.79021 5.2632 0.47154 7.1027 0.93279 11.163 2.7992l2.48 1.1399v11.047l-3.055-1.5554c-3.9006-1.9859-6.8896-2.6743-11.665-2.6867-5.1833-0.01341-8.4963 0.89981-12.16 3.3519-4.7514 3.1798-6.7196 7.2518-6.7196 13.902 0 7.7678 3.2251 12.806 10.08 15.747 5.8675 2.5175 14.423 2.0454 21.174-1.1685 1.4376-0.68446 2.6976-1.1607 2.8-1.0584 0.10234 0.10234 0.18607 2.5913 0.18607 5.5309v5.3448l-1.8556 0.80475c-5.1118 2.2169-13.501 3.4184-19.584 2.8048zm-183.04-28.006v-26.72h10.88v8.3775l1.2787-1.6177c3.6503-4.6179 10.655-7.7403 17.575-7.8339l3.3863-0.04584 0.1742 11.614-3.9271 0.13189c-3.2119 0.10787-4.3833 0.28984-6.432 0.9992-4.3312 1.4997-7.8136 4.2369-9.794 7.6982l-0.9811 1.7148v32.402h-12.16zm100.8 0v-26.72h10.88v6.8581l1.68-1.6097c2.1567-2.0664 3.5385-3.0646 5.8751-4.2439 7.0461-3.5563 16.832-3.1612 23.329 0.94184 3.9966 2.5241 7.21 6.9612 8.6715 11.974 0.49812 1.7084 0.57315 3.9923 0.68067 20.72l0.12084 18.8h-12.197l-4e-3 -16.88c-4e-3 -17.516-0.044-18.132-1.3811-21.22-1.9603-4.5277-8.5891-7.0798-14.468-5.5702-3.4146 0.8768-5.2427 1.984-8.2272 4.983l-2.8 2.8135v35.874h-12.16zm111.04-12.16v-38.88h12.16v14.88c0 8.184 0.0868 14.88 0.19298 14.88 0.10614 0 0.87941-0.612 1.7184-1.36 6.9861-6.2287 19.07-7.3732 27.158-2.5722 4.1226 2.4473 7.1936 6.2865 8.9071 11.135l0.90356 2.5569 0.1882 38.24h-11.868l-0.01-15.6c-5e-3 -8.58-0.14709-16.657-0.31479-17.948-0.82901-6.385-4.6796-10.008-11.164-10.506-5.289-0.40547-10.67 2.2193-14.363 7.0055l-1.3482 1.7476v35.301h-12.16z" fill="#c8b7d7"/>
 <path d="m26.8 108.91-26.8-15.539v-31.126-31.126l53.769-31.128 53.751 31.112v62.282l-26.874 15.55c-14.781 8.5525-26.913 15.542-26.96 15.532-0.04718-0.01-12.146-7.0104-26.886-15.557zm26.96-19.142v-9.4372l34.08-0.1656 0.09016-3.76 0.09015-3.76h-26.9l7e-3 -0.72c0.012-1.2292 1.1683-3.3521 2.6122-4.796 0.7602-0.7602 3.1099-2.4424 5.2215-3.7381 10.909-6.6941 15.621-10.555 17.264-14.143 1.1956-2.6116 1.664-6.1495 1.1695-8.8334-1.3518-7.3367-7.5617-11.377-17.474-11.37-5.4447 0.0041-9.7577 1.1155-14.48 3.7314l-1.68 0.93063v3.9491c0 2.172 0.108 3.9486 0.24 3.9479s0.744-0.31148 1.36-0.69073c2.1683-1.3349 5.3227-2.7742 7.6886-3.5081 3.1648-0.98175 8.869-1.0669 11.441-0.17069 3.1949 1.1131 4.617 2.9447 4.6096 5.9367-0.0106 4.2929-1.608 6.0923-9.8196 11.062-9.1374 5.5295-11.991 7.7608-14.247 11.14l-1.2726 1.9058v-18.313l-8.8 0.02-26.742 32.933 0.18172 6.8874 27.36 0.16688v10.233h8zm-25.387-8.9516c1.8486-2.4854 16.947-20.932 17.147-20.95 0.132-0.01167 0.24 4.8748 0.24 10.859v10.88h-17.973zm121.71 9.2278c-11.282-2.1424-19.271-8.5159-22.21-17.719-2.5484-7.9804-1.5164-18.694 2.4166-25.085 2.5099-4.0792 6.6277-7.6088 11.68-10.012 4.2732-2.0324 7.1154-2.6887 12.547-2.8971 6.3531-0.24379 10.343 0.46788 15.166 2.7049l2.48 1.1503v5.3895c0 2.9642-0.0749 5.3895-0.16635 5.3895-0.0915 0-0.7263-0.35347-1.4107-0.7855-6.1372-3.8743-16.164-4.4494-22.784-1.307-2.3951 1.1368-4.6884 2.945-6.1132 4.8202-4.2604 5.607-4.0663 15.96 0.40504 21.605 2.0929 2.6425 6.3391 5.06 10.338 5.8861 5.6542 1.1679 13.329 0.07736 18.685-2.6551 0.73762-0.3763 1.4189-0.68419 1.5139-0.68419 0.095 0 0.17274 2.4461 0.17274 5.4357v5.4357l-1.2 0.50372c-1.8592 0.78046-4.8183 1.6965-7.28 2.2537-2.1908 0.49589-12.465 0.90726-14.24 0.57016zm86.88-0.2595c-7.9294-1.8511-12.885-6.5-15.254-14.311-0.6954-2.2922-0.71519-2.7978-0.82759-21.148l-0.11515-18.8h11.877l6e-3 15.28c3e-3 8.404 0.13508 16.504 0.29324 18 0.7546 7.1379 4.095 10.398 11.061 10.794 5.6942 0.32425 10.259-1.7729 14.24-6.5429l1.44-1.7252 0.32-35.646 12-0.17412v53.454h-10.56v-3.52c0-1.936-0.0789-3.52-0.17524-3.52-0.0964 0-0.91651 0.74127-1.8225 1.6473-2.3468 2.3468-5.7961 4.4913-8.9139 5.5418-2.3407 0.78872-3.2677 0.91962-7.1684 1.0123-3.0608 0.0727-5.0882-0.03558-6.4-0.34182zm124.02 0.09678c-6.2688-1.0396-13.626-5.1166-17.255-9.5618-3.7989-4.6536-5.5577-10.275-5.5549-17.755 3e-3 -8.4121 2.1288-14.338 6.9255-19.308 3.7245-3.8588 8.4649-6.6124 13.968-8.1136 2.3774-0.64856 3.4033-0.73419 8.6186-0.71934 5.0052 0.01425 6.2908 0.12074 8.32 0.68917 3.0765 0.86182 5.644 1.8373 6.96 2.6444l1.04 0.6378v5.2847c0 2.9066-0.0964 5.2847-0.21413 5.2847-0.11776 0-0.98592-0.43558-1.9292-0.96794-6.7538-3.8116-15.76-4.2527-22.337-1.094-5.7164 2.7457-8.384 6.4711-9.1566 12.788-1.0241 8.3721 2.3893 14.843 9.5616 18.127 6.2664 2.869 15.626 2.3246 22.78-1.3251 0.69837-0.35628 1.3509-0.64779 1.4501-0.64779 0.0992 0 0.1409 2.4613 0.0928 5.4696l-0.0876 5.4696-1.8868 0.7673c-2.3758 0.96619-6.0746 1.9307-9.0545 2.3611-2.7316 0.39452-9.7816 0.37649-12.241-0.03132zm-180.5-27.636v-26.72h10.56v8.2743l2.64-2.6217c2.677-2.6584 4.8676-4.0616 8.24-5.278 3.3277-1.2003 7.6723-1.8389 10.068-1.4797l1.4524 0.21781v11.447h-3.3938c-3.9952 0-6.3609 0.52954-9.7191 2.1755-2.869 1.4062-5.9379 4.2743-7.1623 6.6939l-0.84479 1.6694v32.341h-11.84zm100.48 0v-26.72h10.56v3.52c0 1.936 0.10936 3.52 0.24302 3.52 0.13367 0 0.42194-0.28648 0.64061-0.63663 0.71621-1.1468 5.1769-4.45 7.5311-5.577 4.9423-2.3658 12.535-2.7917 18.054-1.0129 6.5339 2.1059 11.366 7.274 13.293 14.217 0.64935 2.3397 0.68523 3.276 0.80203 20.929l0.12227 18.48h-12.206l-4e-3 -17.04c-4e-3 -18.374-0.05-18.957-1.7162-21.801-3.9824-6.7954-14.954-7.1643-21.704-0.7297-0.95988 0.91497-2.202 2.2942-2.7604 3.065l-1.0151 1.4014v35.104h-11.84zm111.36-12.16v-38.88h11.84v30.096l2.0649-1.7517c2.4848-2.1079 6.6514-4.191 9.6561-4.8276 2.8347-0.60058 8.3003-0.59671 11.159 0.0079 1.232 0.26057 3.4563 1.057 4.9428 1.7698 4.7533 2.2793 8.4268 6.6687 10.298 12.305 0.73949 2.227 0.7444 2.3497 0.84764 21.2l0.10383 18.96h-11.873l-2e-3 -16.08c-3e-3 -16.885-0.14553-19.101-1.4094-21.84-1.6657-3.6102-5.4164-5.9396-9.9466-6.1774-5.8555-0.30734-10.586 1.9856-14.617 7.0855l-1.2247 1.5494v35.463h-11.84z" fill="#af94c4"/>
 <path d="m26.8 108.87-26.8-15.547v-62.155l53.761-31.117 53.759 31.106v62.17l-26.765 15.499c-14.721 8.5242-26.853 15.52-26.96 15.545-0.10704 0.0257-12.255-6.9496-26.995-15.501zm26.96-19.106v-9.44h34.24v-7.68h-26.964l0.1911-1.1776c0.26078-1.607 1.9308-3.9569 3.877-5.4552 0.88863-0.68415 4.0556-2.7414 7.0378-4.5716 12.448-7.6398 16.076-12.283 15.448-19.773-0.41402-4.9384-2.7736-8.3291-7.3526-10.566-3.4151-1.6683-5.6117-2.1158-10.318-2.1019-5.5763 0.01642-9.8642 1.1132-14.434 3.6921l-1.7263 0.97428v4.1335 4.1335l1.36-0.8602c2.076-1.3131 6.3622-3.2186 8.45-3.7567 6.0631-1.5626 12.469-0.49718 14.546 2.4191 0.8907 1.2509 1.1792 4.1198 0.59479 5.9159-1.011 3.1074-2.1082 4.0166-12.907 10.696-5.76 3.5628-9.122 6.3556-10.835 9.0008l-1.0486 1.6191-0.32-18.127-4.1106-0.01729c-2.2608-0.0095-4.2401 0.06278-4.3984 0.16063-0.1583 0.09786-6.2606 7.5139-13.561 16.48l-13.273 16.302-0.0174 7.2h27.2v10.24h8.32zm-25.537-8.72c0.26506-0.308 4.1903-5.132 8.7227-10.72s8.2979-10.16 8.3677-10.16c0.06981 0 0.12693 4.824 0.12693 10.72v10.72h-8.8496c-8.3984 0-8.825-0.02855-8.3677-0.56zm121.86 8.999c-11.282-2.1424-19.271-8.5159-22.21-17.719-2.5484-7.9804-1.5164-18.694 2.4166-25.085 2.5099-4.0792 6.6277-7.6088 11.68-10.012 4.2732-2.0324 7.1154-2.6887 12.547-2.8971 6.3531-0.24379 10.343 0.46788 15.166 2.7049l2.48 1.1503v5.3895c0 2.9642-0.0749 5.3895-0.16635 5.3895-0.0915 0-0.7263-0.35347-1.4107-0.7855-6.1372-3.8743-16.164-4.4494-22.784-1.307-2.3951 1.1368-4.6884 2.945-6.1132 4.8202-4.2604 5.607-4.0663 15.96 0.40504 21.605 2.0929 2.6425 6.3391 5.06 10.338 5.8861 5.6542 1.1679 13.329 0.07736 18.685-2.6551 0.73762-0.3763 1.4189-0.68419 1.5139-0.68419 0.095 0 0.17274 2.4461 0.17274 5.4357v5.4357l-1.2 0.50372c-1.8592 0.78046-4.8183 1.6965-7.28 2.2537-2.1908 0.49589-12.465 0.90726-14.24 0.57016zm86.88-0.2595c-7.9294-1.8511-12.885-6.5-15.254-14.311-0.6954-2.2922-0.71519-2.7978-0.82759-21.148l-0.11515-18.8h11.877l6e-3 15.28c3e-3 8.404 0.13508 16.504 0.29324 18 0.7546 7.1379 4.095 10.398 11.061 10.794 5.6942 0.32425 10.259-1.7729 14.24-6.5429l1.44-1.7252 0.32-35.646 12-0.17412v53.454h-10.56v-3.52c0-1.936-0.0789-3.52-0.17524-3.52-0.0964 0-0.91651 0.74127-1.8225 1.6473-2.3468 2.3468-5.7961 4.4913-8.9139 5.5418-2.3407 0.78872-3.2677 0.91962-7.1684 1.0123-3.0608 0.0727-5.0882-0.03558-6.4-0.34182zm124.02 0.09678c-6.2688-1.0396-13.626-5.1166-17.255-9.5618-3.7989-4.6536-5.5577-10.275-5.5549-17.755 3e-3 -8.4121 2.1288-14.338 6.9255-19.308 3.7245-3.8588 8.4649-6.6124 13.968-8.1136 2.3774-0.64856 3.4033-0.73419 8.6186-0.71934 5.0052 0.01425 6.2908 0.12074 8.32 0.68917 3.0765 0.86182 5.644 1.8373 6.96 2.6444l1.04 0.6378v5.2847c0 2.9066-0.0964 5.2847-0.21413 5.2847-0.11776 0-0.98592-0.43558-1.9292-0.96794-6.7538-3.8116-15.76-4.2527-22.337-1.094-5.7164 2.7457-8.384 6.4711-9.1566 12.788-1.0241 8.3721 2.3893 14.843 9.5616 18.127 6.2664 2.869 15.626 2.3246 22.78-1.3251 0.69837-0.35628 1.3509-0.64779 1.4501-0.64779 0.0992 0 0.1409 2.4613 0.0928 5.4696l-0.0876 5.4696-1.8868 0.7673c-2.3758 0.96619-6.0746 1.9307-9.0545 2.3611-2.7316 0.39452-9.7816 0.37649-12.241-0.03132zm-180.5-27.636v-26.72h10.56v8.2743l2.64-2.6217c2.677-2.6584 4.8676-4.0616 8.24-5.278 3.3277-1.2003 7.6723-1.8389 10.068-1.4797l1.4524 0.21781v11.447h-3.3938c-3.9952 0-6.3609 0.52954-9.7191 2.1755-2.869 1.4062-5.9379 4.2743-7.1623 6.6939l-0.84479 1.6694v32.341h-11.84zm100.48 0v-26.72h10.56v3.52c0 1.936 0.10936 3.52 0.24302 3.52 0.13367 0 0.42194-0.28648 0.64061-0.63663 0.71621-1.1468 5.1769-4.45 7.5311-5.577 4.9423-2.3658 12.535-2.7917 18.054-1.0129 6.5339 2.1059 11.366 7.274 13.293 14.217 0.64935 2.3397 0.68523 3.276 0.80203 20.929l0.12227 18.48h-12.206l-4e-3 -17.04c-4e-3 -18.374-0.05-18.957-1.7162-21.801-3.9824-6.7954-14.954-7.1643-21.704-0.7297-0.95988 0.91497-2.202 2.2942-2.7604 3.065l-1.0151 1.4014v35.104h-11.84zm111.36-12.16v-38.88h11.84v30.096l2.0649-1.7517c2.4848-2.1079 6.6514-4.191 9.6561-4.8276 2.8347-0.60058 8.3003-0.59671 11.159 0.0079 1.232 0.26057 3.4563 1.057 4.9428 1.7698 4.7533 2.2793 8.4268 6.6687 10.298 12.305 0.73949 2.227 0.7444 2.3497 0.84764 21.2l0.10383 18.96h-11.873l-2e-3 -16.08c-3e-3 -16.885-0.14553-19.101-1.4094-21.84-1.6657-3.6102-5.4164-5.9396-9.9466-6.1774-5.8555-0.30734-10.586 1.9856-14.617 7.0855l-1.2247 1.5494v35.463h-11.84z" fill="#9d9c9c"/>
 <path d="m26.8 108.87-26.8-15.547v-62.155l53.761-31.117 53.759 31.106v62.17l-26.765 15.499c-14.721 8.5242-26.853 15.52-26.96 15.545-0.10704 0.0257-12.255-6.9496-26.995-15.501zm26.96-19.106v-9.44h34.24v-7.68h-26.964l0.1911-1.1776c0.26078-1.607 1.9308-3.9569 3.877-5.4552 0.88863-0.68415 4.0556-2.7414 7.0378-4.5716 12.448-7.6398 16.076-12.283 15.448-19.773-0.41402-4.9384-2.7736-8.3291-7.3526-10.566-3.4151-1.6683-5.6117-2.1158-10.318-2.1019-5.5763 0.01642-9.8642 1.1132-14.434 3.6921l-1.7263 0.97428v4.1335 4.1335l1.36-0.8602c2.076-1.3131 6.3622-3.2186 8.45-3.7567 6.0631-1.5626 12.469-0.49718 14.546 2.4191 0.8907 1.2509 1.1792 4.1198 0.59479 5.9159-1.011 3.1074-2.1082 4.0166-12.907 10.696-5.76 3.5628-9.122 6.3556-10.835 9.0008l-1.0486 1.6191-0.32-18.127-4.1106-0.01729c-2.2608-0.0095-4.2401 0.06278-4.3984 0.16063-0.1583 0.09786-6.2606 7.5139-13.561 16.48l-13.273 16.302-0.0174 7.2h27.2v10.24h8.32zm-25.537-8.72c0.26506-0.308 4.1903-5.132 8.7227-10.72s8.2979-10.16 8.3677-10.16c0.06981 0 0.12693 4.824 0.12693 10.72v10.72h-8.8496c-8.3984 0-8.825-0.02855-8.3677-0.56zm120.85 8.6995c-8.3768-1.516-16.345-7.0289-19.62-13.575-2.0091-4.0153-2.816-7.9281-2.8058-13.605 0.01-5.5245 0.81358-9.4286 2.7544-13.382 1.632-3.3243 2.9593-5.0435 5.8487-7.5751 9.0694-7.9463 24.044-9.698 35.391-4.14l1.52 0.74455v10.709l-2.734-1.3951c-3.626-1.8502-7.3937-2.7218-11.766-2.7218-4.0848 0-6.8838 0.60118-10.099 2.1692-6.4302 3.1355-9.3795 8.669-8.9061 16.71 0.26876 4.5643 1.7828 8.2304 4.4474 10.769 1.7464 1.664 4.8634 3.4884 7.3531 4.304 2.0818 0.68197 2.9011 0.76588 7.3048 0.74822 5.6201-0.02253 8.2412-0.5591 12.433-2.5452 1.2943-0.6132 2.4103-1.1149 2.48-1.1149 0.0697 0 0.12678 2.4327 0.12678 5.406v5.406l-2.0275 0.81166c-6.1935 2.4794-15.299 3.4344-21.701 2.2759zm89.488 0.27184c-4.6868-0.64816-8.2291-2.3964-11.527-5.6887-2.8714-2.8668-4.1889-5.1713-5.3361-9.3332-0.67043-2.4323-0.6924-3.0753-0.71443-20.909l-0.0227-18.4 11.636-0.17426 0.11981 17.527c0.13188 19.294 0.11637 19.135 2.1751 22.243 1.093 1.6502 3.2668 3.2433 5.25 3.8478 0.72303 0.22036 3.0015 0.39589 5.1389 0.39589 3.6813 0 3.9323-0.04369 6.0728-1.0573 2.9377-1.391 5.2629-3.2193 7.216-5.6738l1.5912-1.9996v-35.269h11.52v53.44h-10.24v-7.4265l-2.5993 2.4452c-3.0793 2.8968-7.0095 4.973-10.907 5.762-2.2597 0.4574-7.0275 0.59505-9.3735 0.27062zm122.03-0.27264c-8.2003-1.4838-15.952-6.8601-19.374-13.437-2.0765-3.9913-2.6843-6.5555-2.8782-12.142-0.34724-10.006 2.0689-16.684 7.9965-22.102 8.9754-8.2038 23.648-10.23 35.188-4.8597l2.16 1.0052v10.679l-2.8-1.4073c-3.8605-1.9402-7.0194-2.6661-11.6-2.6654-7.0361 0.0011-12.687 2.4187-16.075 6.8772-4.2591 5.6053-4.0555 15.974 0.42476 21.63 1.1726 1.4806 4.2755 3.7093 6.5299 4.6903 6.1816 2.69 15.309 2.1437 22.157-1.3261 0.9142-0.46326 1.739-0.84228 1.8328-0.84228 0.0939 0 0.17064 2.4327 0.17064 5.406v5.406l-2 0.79415c-6.4377 2.5563-15.18 3.4784-21.733 2.2926zm-180.11-27.491v-26.727h10.24v4.1411c0 2.2776 0.12229 4.2167 0.27177 4.3091 0.14947 0.09238 0.46925-0.20103 0.71061-0.65202 0.66799-1.2481 3.91-4.1141 6.1173-5.4078 3.9424-2.3106 7.7537-3.3504 12.28-3.3504h3.0202v11.415l-3.28 0.01724c-7.2811 0.03827-13.193 3.0954-16.57 8.568l-0.78979 1.28-0.32 32.96-11.68 0.17444zm100.63 26.313c-0.0839-0.22-0.11542-12.208-0.07-26.64l0.0827-26.24 10.4-0.17586v7.4877l1.84-1.8552c4.9059-4.9465 10.832-7.1688 18.143-6.8037 4.0136 0.20043 6.3875 0.7579 9.2271 2.1668 5.2778 2.6186 8.9332 7.2535 10.475 13.282 0.59636 2.3318 0.63443 3.5817 0.63443 20.829v18.349h-11.476l-0.11172-17.2c-0.11165-17.191-0.1121-17.201-0.87927-19.397-1.0145-2.9034-3.0896-5.2036-5.8402-6.4737-1.8529-0.85561-2.3064-0.92966-5.6933-0.92966-2.7217 0-4.1108 0.1503-5.3343 0.57717-2.4153 0.84269-5.9294 3.4492-7.9454 5.8932l-1.7604 2.1342v35.395h-5.77c-4.3213 0-5.8084-0.10043-5.9226-0.4zm111.21-38.48v-38.88h11.84v30.103l1.9133-1.5922c2.4919-2.0738 5.3454-3.6382 8.3267-4.565 2.0844-0.648 3.0312-0.74308 7.2-0.72315 4.3125 0.02062 5.06 0.10969 7.36 0.87696 3.208 1.0702 5.3278 2.286 7.5889 4.3525 3.3301 3.0435 5.6175 7.5248 6.3193 12.38 0.18034 1.2476 0.32182 9.7551 0.3254 19.567l6e-3 17.36h-11.84v-16.624c0-17.246-0.0989-18.789-1.3656-21.296-2.2985-4.5491-5.9423-6.4352-11.914-6.1672-2.8511 0.12795-3.4767 0.27202-5.738 1.3214-2.0889 0.96937-3.0374 1.6834-5.36 4.0349l-2.822 2.8571v35.874h-11.84z" fill="#8a63a9"/>
 <path d="m26.656 108.7-26.624-15.417-0.0014118-31.04-0.0014118-31.04 26.595-15.36c14.627-8.448 26.764-15.402 26.97-15.453s9.868 5.3984 21.47 12.11c11.602 6.7117 23.645 13.665 26.761 15.453l5.6665 3.2499-4e-3 62.08-26.581 15.36c-14.62 8.448-26.817 15.386-27.105 15.417-0.28779 0.0314-12.504-6.8806-27.147-15.36zm27.104-18.937v-9.44h34.24v-8.0651l-26.896 0.22506 0.19928-0.96c0.29774-1.4344 1.5476-3.435 2.9188-4.6722 0.66974-0.60428 4.0678-2.872 7.5512-5.0394 12.828-7.9814 15.893-11.608 15.903-18.815 0.0099-7.4213-4.1326-11.959-12.531-13.725-5.9586-1.2534-13.823 0.03792-19.434 3.1913l-1.7912 1.0065-0.08954 4.2628-0.08954 4.2628 1.4807-0.86777c2.4119-1.4135 4.9675-2.6181 7.1811-3.385 2.8541-0.9888 9.0141-1.2472 11.627-0.48765 6.3806 1.8549 6.7764 8.8416 0.7509 13.253-0.91318 0.66853-2.9563 1.9898-4.5403 2.9361-9.3303 5.5742-13.425 8.748-15.492 12.007l-0.98765 1.5574v-18.365l-8.8 0.045-26.72 32.946v7.3293h27.2v10.24h8.32zm-24.262-10.16c0.77886-0.924 4.5643-5.568 8.4121-10.32s7.116-8.7768 7.2628-8.944c0.14673-0.1672 0.26679 4.4768 0.26679 10.32v10.624h-17.358zm119.57 10.14c-8.3768-1.516-16.345-7.0289-19.62-13.575-2.0091-4.0153-2.816-7.9281-2.8058-13.605 0.01-5.5245 0.81358-9.4286 2.7544-13.382 1.632-3.3243 2.9593-5.0435 5.8487-7.5751 9.0694-7.9463 24.044-9.698 35.391-4.14l1.52 0.74455v10.709l-2.734-1.3951c-3.626-1.8502-7.3937-2.7218-11.766-2.7218-4.0848 0-6.8838 0.60118-10.099 2.1692-6.4302 3.1355-9.3795 8.669-8.9061 16.71 0.26876 4.5643 1.7828 8.2304 4.4474 10.769 1.7464 1.664 4.8634 3.4884 7.3531 4.304 2.0818 0.68197 2.9011 0.76588 7.3048 0.74822 5.6201-0.02253 8.2412-0.5591 12.433-2.5452 1.2943-0.6132 2.4103-1.1149 2.48-1.1149 0.0697 0 0.12678 2.4327 0.12678 5.406v5.406l-2.0275 0.81166c-6.1935 2.4794-15.299 3.4344-21.701 2.2759zm89.488 0.27184c-4.6868-0.64816-8.2291-2.3964-11.527-5.6887-2.8714-2.8668-4.1889-5.1713-5.3361-9.3332-0.67043-2.4323-0.6924-3.0753-0.71443-20.909l-0.0227-18.4 11.636-0.17426 0.11981 17.527c0.13188 19.294 0.11637 19.135 2.1751 22.243 1.093 1.6502 3.2668 3.2433 5.25 3.8478 0.72303 0.22036 3.0015 0.39589 5.1389 0.39589 3.6813 0 3.9323-0.04369 6.0728-1.0573 2.9377-1.391 5.2629-3.2193 7.216-5.6738l1.5912-1.9996v-35.269h11.52v53.44h-10.24v-7.4265l-2.5993 2.4452c-3.0793 2.8968-7.0095 4.973-10.907 5.762-2.2597 0.4574-7.0275 0.59505-9.3735 0.27062zm122.03-0.27264c-8.2003-1.4838-15.952-6.8601-19.374-13.437-2.0765-3.9913-2.6843-6.5555-2.8782-12.142-0.34724-10.006 2.0689-16.684 7.9965-22.102 8.9754-8.2038 23.648-10.23 35.188-4.8597l2.16 1.0052v10.679l-2.8-1.4073c-3.8605-1.9402-7.0194-2.6661-11.6-2.6654-7.0361 0.0011-12.687 2.4187-16.075 6.8772-4.2591 5.6053-4.0555 15.974 0.42476 21.63 1.1726 1.4806 4.2755 3.7093 6.5299 4.6903 6.1816 2.69 15.309 2.1437 22.157-1.3261 0.9142-0.46326 1.739-0.84228 1.8328-0.84228 0.0939 0 0.17064 2.4327 0.17064 5.406v5.406l-2 0.79415c-6.4377 2.5563-15.18 3.4784-21.733 2.2926zm-180.11-27.491v-26.727h10.24v4.1411c0 2.2776 0.12229 4.2167 0.27177 4.3091 0.14947 0.09238 0.46925-0.20103 0.71061-0.65202 0.66799-1.2481 3.91-4.1141 6.1173-5.4078 3.9424-2.3106 7.7537-3.3504 12.28-3.3504h3.0202v11.415l-3.28 0.01724c-7.2811 0.03827-13.193 3.0954-16.57 8.568l-0.78979 1.28-0.32 32.96-11.68 0.17444zm100.63 26.313c-0.0839-0.22-0.11542-12.208-0.07-26.64l0.0827-26.24 10.4-0.17586v7.4877l1.84-1.8552c4.9059-4.9465 10.832-7.1688 18.143-6.8037 4.0136 0.20043 6.3875 0.7579 9.2271 2.1668 5.2778 2.6186 8.9332 7.2535 10.475 13.282 0.59636 2.3318 0.63443 3.5817 0.63443 20.829v18.349h-11.476l-0.11172-17.2c-0.11165-17.191-0.1121-17.201-0.87927-19.397-1.0145-2.9034-3.0896-5.2036-5.8402-6.4737-1.8529-0.85561-2.3064-0.92966-5.6933-0.92966-2.7217 0-4.1108 0.1503-5.3343 0.57717-2.4153 0.84269-5.9294 3.4492-7.9454 5.8932l-1.7604 2.1342v35.395h-5.77c-4.3213 0-5.8084-0.10043-5.9226-0.4zm111.21-38.48v-38.88h11.84v30.103l1.9133-1.5922c2.4919-2.0738 5.3454-3.6382 8.3267-4.565 2.0844-0.648 3.0312-0.74308 7.2-0.72315 4.3125 0.02062 5.06 0.10969 7.36 0.87696 3.208 1.0702 5.3278 2.286 7.5889 4.3525 3.3301 3.0435 5.6175 7.5248 6.3193 12.38 0.18034 1.2476 0.32182 9.7551 0.3254 19.567l6e-3 17.36h-11.84v-16.624c0-17.246-0.0989-18.789-1.3656-21.296-2.2985-4.5491-5.9423-6.4352-11.914-6.1672-2.8511 0.12795-3.4767 0.27202-5.738 1.3214-2.0889 0.96937-3.0374 1.6834-5.36 4.0349l-2.822 2.8571v35.874h-11.84z" fill="#724398"/>
 <path d="m149.07 89.74c-8.3768-1.516-16.345-7.0289-19.62-13.575-2.0091-4.0153-2.816-7.9281-2.8058-13.605 0.01-5.5245 0.81358-9.4286 2.7544-13.382 1.632-3.3243 2.9593-5.0435 5.8487-7.5751 9.0694-7.9463 24.044-9.698 35.391-4.14l1.52 0.74455v10.709l-2.734-1.3951c-3.626-1.8502-7.3937-2.7218-11.766-2.7218-4.0848 0-6.8838 0.60118-10.099 2.1692-6.4302 3.1355-9.3795 8.669-8.9061 16.71 0.26876 4.5643 1.7828 8.2304 4.4474 10.769 1.7464 1.664 4.8634 3.4884 7.3531 4.304 2.0818 0.68197 2.9011 0.76588 7.3048 0.74822 5.6201-0.02253 8.2412-0.5591 12.433-2.5452 1.2943-0.6132 2.4103-1.1149 2.48-1.1149 0.0697 0 0.12678 2.4327 0.12678 5.406v5.406l-2.0275 0.81166c-6.1935 2.4794-15.299 3.4344-21.701 2.2759zm89.488 0.27184c-4.6868-0.64816-8.2291-2.3964-11.527-5.6887-2.8714-2.8668-4.1889-5.1713-5.3361-9.3332-0.67043-2.4323-0.6924-3.0753-0.71443-20.909l-0.0227-18.4 11.636-0.17426 0.11981 17.527c0.13188 19.294 0.11637 19.135 2.1751 22.243 1.093 1.6502 3.2668 3.2433 5.25 3.8478 0.72303 0.22036 3.0015 0.39589 5.1389 0.39589 3.6813 0 3.9323-0.04369 6.0728-1.0573 2.9377-1.391 5.2629-3.2193 7.216-5.6738l1.5912-1.9996v-35.269h11.52v53.44h-10.24v-7.4265l-2.5993 2.4452c-3.0793 2.8968-7.0095 4.973-10.907 5.762-2.2597 0.4574-7.0275 0.59505-9.3735 0.27062zm122.03-0.27264c-8.2003-1.4838-15.952-6.8601-19.374-13.437-2.0765-3.9913-2.6843-6.5555-2.8782-12.142-0.34724-10.006 2.0689-16.684 7.9965-22.102 8.9754-8.2038 23.648-10.23 35.188-4.8597l2.16 1.0052v10.679l-2.8-1.4073c-3.8605-1.9402-7.0194-2.6661-11.6-2.6654-7.0361 0.0011-12.687 2.4187-16.075 6.8772-4.2591 5.6053-4.0555 15.974 0.42476 21.63 1.1726 1.4806 4.2755 3.7093 6.5299 4.6903 6.1816 2.69 15.309 2.1437 22.157-1.3261 0.9142-0.46326 1.739-0.84228 1.8328-0.84228 0.0939 0 0.17064 2.4327 0.17064 5.406v5.406l-2 0.79415c-6.4377 2.5563-15.18 3.4784-21.733 2.2926zm-180.11-27.491v-26.727h10.24v4.1411c0 2.2776 0.12229 4.2167 0.27177 4.3091 0.14947 0.09238 0.46925-0.20103 0.71061-0.65202 0.66799-1.2481 3.91-4.1141 6.1173-5.4078 3.9424-2.3106 7.7537-3.3504 12.28-3.3504h3.0202v11.415l-3.28 0.01724c-7.2811 0.03827-13.193 3.0954-16.57 8.568l-0.78979 1.28-0.32 32.96-11.68 0.17444zm100.63 26.313c-0.0839-0.22-0.11542-12.208-0.07-26.64l0.0827-26.24 10.4-0.17586v7.4877l1.84-1.8552c4.9059-4.9465 10.832-7.1688 18.143-6.8037 4.0136 0.20043 6.3875 0.7579 9.2271 2.1668 5.2778 2.6186 8.9332 7.2535 10.475 13.282 0.59636 2.3318 0.63443 3.5817 0.63443 20.829v18.349h-11.476l-0.11172-17.2c-0.11165-17.191-0.1121-17.201-0.87927-19.397-1.0145-2.9034-3.0896-5.2036-5.8402-6.4737-1.8529-0.85561-2.3064-0.92966-5.6933-0.92966-2.7217 0-4.1108 0.1503-5.3343 0.57717-2.4153 0.84269-5.9294 3.4492-7.9454 5.8932l-1.7604 2.1342v35.395h-5.77c-4.3213 0-5.8084-0.10043-5.9226-0.4zm111.21-38.48v-38.88h11.84v30.103l1.9133-1.5922c2.4919-2.0738 5.3454-3.6382 8.3267-4.565 2.0844-0.648 3.0312-0.74308 7.2-0.72315 4.3125 0.02062 5.06 0.10969 7.36 0.87696 3.208 1.0702 5.3278 2.286 7.5889 4.3525 3.3301 3.0435 5.6175 7.5248 6.3193 12.38 0.18034 1.2476 0.32182 9.7551 0.3254 19.567l6e-3 17.36h-11.84v-16.624c0-17.246-0.0989-18.789-1.3656-21.296-2.2985-4.5491-5.9423-6.4352-11.914-6.1672-2.8511 0.12795-3.4767 0.27202-5.738 1.3214-2.0889 0.96937-3.0374 1.6834-5.36 4.0349l-2.822 2.8571v35.874h-11.84z" fill="#585656"/>
 <path d="m151.04 90.016c-2.2908-0.24943-6.6329-1.478-8.8985-2.5178-7.4345-3.4121-12.409-8.9998-14.525-16.316-0.65553-2.2666-0.73334-3.2004-0.71852-8.6219 0.0143-5.2351 0.11422-6.4358 0.7189-8.64 2.0213-7.368 6.6496-12.773 13.983-16.329 5.1564-2.5003 8.1498-3.1726 14.08-3.162 6.1668 0.01102 10.31 0.86519 14.53 2.9958l1.9496 0.98417v5.2943c0 4.1481-0.0866 5.2431-0.4 5.0579-0.22-0.13-0.904-0.54238-1.52-0.9164-3.3548-2.0369-7.6441-3.0899-12.656-3.1069-8.6802-0.02941-15.547 3.9984-17.994 10.555-0.96972 2.5979-1.3387 8.3963-0.72309 11.362 0.99883 4.8113 4.237 8.7659 9.071 11.078 3.2598 1.559 5.564 2.0408 9.6625 2.0206 4.9833-0.02462 9.7281-1.1349 13.861-3.2436l1.3386-0.6829-4e-3 5.3665-4e-3 5.3665-2.1561 0.86956c-5.2632 2.1227-13.666 3.2317-19.596 2.5861zm87.512-0.09177c-6.8943-1.0134-12.355-4.8248-15.134-10.564-2.2385-4.6214-2.298-5.2845-2.298-25.587v-17.933h11.52v16.421c0 10.221 0.12833 17.115 0.33989 18.26 1.0217 5.527 4.1398 8.4177 9.8526 9.134 6.3746 0.79931 12.163-1.8254 16.223-7.3564l1.1044-1.5045v-34.954h11.52v52.8h-10.24v-7.1175l-2.2153 2.0898c-5.6132 5.2952-12.754 7.4755-20.672 6.3116zm124.17 0.09706c-4.6448-0.59603-9.4808-2.3941-13.288-4.9405-8.0644-5.3942-11.615-13.158-11.095-24.261 0.51733-11.048 5.2796-18.552 14.783-23.292 4.5319-2.2607 8.5409-3.1335 14.24-3.1002 6.277 0.03672 9.4886 0.66569 14.16 2.7731l2.16 0.97446v10.779l-1.52-0.9325c-3.604-2.211-7.736-3.263-12.88-3.2792-5.9679-0.01882-10.705 1.6482-14.397 5.0665-4.2362 3.922-5.8779 10.845-4.1624 17.552 1.2073 4.7204 3.8977 7.9796 8.5436 10.35 6.0733 3.0984 15.911 2.6914 23.216-0.96037l1.84-0.91985v10.788l-2.16 0.83715c-5.5715 2.1593-13.968 3.2671-19.44 2.5649zm-182.24-27.781v-26.4h5.111 5.111l0.178 8.7522 1.351-1.7905c2.4337-3.2254 7.1165-6.1958 11.769-7.4655 1.056-0.28818 3.54-0.59884 5.52-0.69038l3.6-0.16642v11.441l-3.28 0.0072c-3.9753 0.0087-5.9955 0.4626-9.3811 2.1077-3.1041 1.5083-5.971 4.1868-7.4487 6.9594l-1.0102 1.8953v31.75h-11.52zm100.8 0v-26.4h10.24v7.1214l2.3395-2.2007c3.8001-3.5747 7.5734-5.4235 12.708-6.2266 2.7913-0.43659 7.2943-0.21217 10.072 0.50198 5.5548 1.4279 10.455 5.3742 12.919 10.404 2.2121 4.5157 2.2808 5.2829 2.2808 25.468v17.732h-11.52l-2e-3 -15.92c-1e-3 -9.5167-0.13691-16.757-0.33679-18-0.9039-5.6227-4.4422-9.1007-10.07-9.8985-5.8856-0.83433-11.63 1.7428-15.886 7.1266l-1.2247 1.5494v35.143h-11.52zm111.04-12.32v-38.72h11.52v15.04c0 8.93 0.11948 15.04 0.29409 15.04 0.16175 0 1.1338-0.71914 2.16-1.5981 2.273-1.9468 5.2278-3.535 8.4259-4.5291 2.0109-0.62506 3.0745-0.7436 6.56-0.73109 4.7346 0.017 7.4018 0.54571 10.496 2.0806 5.325 2.6413 8.8773 7.0368 10.545 13.048 0.64867 2.338 0.68513 3.282 0.80219 20.769l0.12263 18.32h-11.886l-4e-3 -16.88c-4e-3 -18.201-0.0516-18.8-1.7162-21.641-3.4749-5.9295-13.012-7.2643-19.586-2.7413-1.8729 1.2886-3.8705 3.2433-5.2242 5.112l-0.98942 1.3658v34.784h-11.52z" fill="#221e1f"/>
</svg>
