<?xml version="1.0" encoding="UTF-8"?>
<svg id="_レイヤー_2" data-name="レイヤー 2" xmlns="http://www.w3.org/2000/svg" viewBox="0 0 295.08 113.92">
  <defs>
    <style>
      .cls-1 {
        fill: #696868;
      }

      .cls-2 {
        fill: #676565;
      }

      .cls-3 {
        fill: #6a6969;
      }

      .cls-4 {
        fill: #7d7c7d;
      }

      .cls-5 {
        fill: #6b6a6a;
      }

      .cls-6 {
        fill: #7f7f7f;
      }

      .cls-7 {
        fill: #818181;
      }

      .cls-8 {
        fill: #7e7d7e;
      }

      .cls-9 {
        fill: #747373;
      }

      .cls-10 {
        fill: #686767;
      }

      .cls-11 {
        fill: #656464;
      }

      .cls-12 {
        fill: #969696;
      }

      .cls-13 {
        fill: #99999a;
      }

      .cls-14 {
        fill: #7c7b7b;
      }

      .cls-15 {
        fill: #989899;
      }

      .cls-16 {
        fill: #979797;
      }

      .cls-17 {
        fill: #919192;
      }

      .cls-18 {
        fill: #8b8b8c;
      }

      .cls-19 {
        fill: #9c9d9d;
      }

      .cls-20 {
        fill: #a1a1a2;
      }

      .cls-21 {
        fill: #929293;
      }

      .cls-22 {
        fill: #a0a0a0;
      }

      .cls-23 {
        fill: #848384;
      }

      .cls-24 {
        fill: #939494;
      }

      .cls-25 {
        fill: #b4b4b5;
      }

      .cls-26 {
        fill: #8a8a8b;
      }

      .cls-27 {
        fill: #b5b5b6;
      }

      .cls-28 {
        fill: #9d9e9e;
      }

      .cls-29 {
        fill: #9e9f9f;
      }

      .cls-30 {
        fill: #909091;
      }

      .cls-31 {
        fill: #b3b3b4;
      }

      .cls-32 {
        fill: #8f8f8f;
      }

      .cls-33 {
        fill: #8d8d8d;
      }

      .cls-34 {
        fill: #8e8e8e;
      }

      .cls-35 {
        fill: #858485;
      }

      .cls-36 {
        fill: #acadae;
      }

      .cls-37 {
        fill: #a9aaaa;
      }

      .cls-38 {
        fill: #a4a4a5;
      }

      .cls-39 {
        fill: #a6a7a7;
      }

      .cls-40 {
        fill: #b1b1b2;
      }

      .cls-41 {
        fill: #aaabab;
      }

      .cls-42 {
        fill: #a7a8a8;
      }

      .cls-43 {
        fill: #b0b0b1;
      }

      .cls-44 {
        fill: #a5a5a6;
      }

      .cls-45 {
        fill: #b2b2b3;
      }

      .cls-46 {
        fill: #aeaeaf;
      }

      .cls-47 {
        fill: #abacad;
      }

      .cls-48 {
        fill: #afafb0;
      }

      .cls-49 {
        fill: #a8a9a9;
      }

      .cls-50 {
        fill: #a3a3a4;
      }

      .cls-51 {
        fill: #6e6d6d;
      }

      .cls-52 {
        fill: #9b9b9c;
      }

      .cls-53 {
        fill: #706f6f;
      }

      .cls-54 {
        fill: #717171;
      }

      .cls-55 {
        fill: #949595;
      }

      .cls-56 {
        fill: #6f6e6e;
      }

      .cls-57 {
        fill: #727272;
      }

      .cls-58 {
        fill: #a2a2a3;
      }

      .cls-59 {
        fill: #545251;
      }

      .cls-60 {
        fill: #535050;
      }

      .cls-61 {
        fill: #868686;
      }

      .cls-62 {
        fill: #9a9a9b;
      }

      .cls-63 {
        fill: #89898a;
      }

      .cls-64 {
        fill: #6d6c6c;
      }

      .cls-65 {
        fill: #888;
      }

      .cls-66 {
        fill: #878787;
      }

      .cls-67 {
        fill: gray;
      }

      .cls-68 {
        fill: #555353;
      }

      .cls-69 {
        fill: #646363;
      }

      .cls-70 {
        fill: #595757;
      }

      .cls-71 {
        fill: #565454;
      }

      .cls-72 {
        fill: #636161;
      }

      .cls-73 {
        fill: #5c5a5a;
      }

      .cls-74 {
        fill: #5a5858;
      }

      .cls-75 {
        fill: #585656;
      }

      .cls-76 {
        fill: #4c4948;
      }

      .cls-77 {
        fill: #4a8537;
      }

      .cls-78 {
        fill: #626060;
      }

      .cls-79 {
        fill: #494645;
      }

      .cls-80 {
        fill: #605f5f;
      }

      .cls-81 {
        fill: #5f5e5e;
      }

      .cls-82 {
        fill: #5d5b5b;
      }

      .cls-83 {
        fill: #757474;
      }

      .cls-84 {
        fill: #767575;
      }

      .cls-85 {
        fill: #777677;
      }

      .cls-86 {
        fill: #797979;
      }

      .cls-87 {
        fill: #7a7a7a;
      }

      .cls-88 {
        fill: #4b4747;
      }

      .cls-89 {
        fill: #5e5c5c;
      }

      .cls-90 {
        fill: #4f4c4b;
      }

      .cls-91 {
        fill: #787878;
      }

      .cls-92 {
        fill: #504d4d;
      }

      .cls-93 {
        fill: #828282;
      }

      .cls-94 {
        fill: #4d4a4a;
      }

      .cls-95 {
        fill: #514f4e;
      }

      .cls-96 {
        fill: none;
        stroke: #494645;
        stroke-width: 4px;
      }
    </style>
  </defs>
  <g id="_レイヤー_1-2" data-name="レイヤー 1">
    <g>
      <path class="cls-77" d="m25.05,24.33c5.03.32,8.66,1.5,10.89,3.49,2.23,2.01,3.34,4.78,3.34,8.31,0,4.49-1.87,8.35-5.6,11.59-3.74,3.24-8.48,4.87-14.25,4.87l-2.78-.08c-2.34-.11-4.32-.17-5.93-.17-1.17,0-2.61.05-4.32.14l-3.43.11s.45-4.11.5-5.06c.13-2.79.08-5.96.08-9.52l-.26-21.88c0-5.86-.09-9.17-.52-9.94-.51-.92-.71-1.37-2.7-1.37h-.08v-2.22h2.91l3.24.12c1.68.09,3,.13,3.97.13,1.47,0,4.39-.07,8.75-.22l5.12-.13c4.03,0,7.04.71,9.03,2.12,2.5,1.78,3.77,4.31,3.77,7.58,0,2.68-.89,5.03-2.66,7.05-1.77,2.02-4.79,3.71-9.08,5.08Zm-11.67-1c1.17.07,2.25.11,3.23.11,4.66,0,8-.83,10.02-2.49,2.01-1.64,3.02-4.03,3.02-7.14,0-2.7-.85-4.77-2.53-6.2-1.69-1.44-4.38-2.16-8.08-2.16-1.63,0-3.42.15-5.34.46-.21,2.86-.31,7.18-.31,12.97v4.46Zm0,25.75c2.18.33,3.98.5,5.41.5,4.14,0,7.36-1.11,9.64-3.33,2.29-2.21,3.43-5.21,3.43-9.01,0-2.53-.51-4.62-1.52-6.27-1-1.65-2.41-2.85-4.23-3.61-1.81-.77-4.71-1.15-8.7-1.15-1.19,0-2.54.03-4.04.11v12.47l.04,4.43c.07,1.59.1,2.81.1,3.65,0,.64-.05,1.37-.14,2.22Z"/>
      <path class="cls-77" d="m58.24,26.59c.93-.89,1.96-2.06,3.06-3.51,1.32-1.7,2.54-2.88,3.66-3.51,1.13-.63,2.32-.95,3.56-.95s2.28.16,2.96.46c.33.14.5.36.5.67l-.04.35c-.38,1.89-.59,4.55-.63,7.97h-1.59c-.53-1.2-1.16-2.04-1.9-2.53-.74-.49-1.62-.73-2.65-.73-1.38,0-2.65.47-3.83,1.4-1.18.94-1.97,2.25-2.37,3.93-.39,1.69-.59,5-.59,9.93,0,3.25.13,5.99.39,8.21.1.82.33,1.34.71,1.55.89.49,2.2.73,3.93.73h2.11v2.04c-3.59-.16-6.98-.25-10.19-.25s-4.38.08-7.43.25c0,0,.54-.82.94-1.92.24-.66.32-2.34.41-4.26.16-3.37.25-7.38.25-12.01,0-5.64-.23-8.96-.67-9.95-.31-.63-.43-1.16-1.74-1.16h-1v-2.04c2.27-.26,4.29-.59,6.08-1,1.78-.41,3.36-.93,4.74-1.56.32-.17.59-.25.8-.25.26,0,.44.07.53.22.09.14.14.45.14.95l-.14,6.98Z"/>
      <path class="cls-77" d="m90.86,18.31l.85.53c-.16,1.75-.31,3.86-.35,5.97-.17,6.83-.26,11.88-.26,15.14,0,3.05.11,5.65.32,7.81.1.84.31,1.42.67,1.75.35.32,1.19.57,2.53.74l2.39.32v2.04c-3.42-.16-6.53-.25-9.34-.25s-4.22.08-7.02.25c0,0,.56-.85.88-2.06.11-.42.44-2.42.52-4.35.11-2.98.17-7.09.17-12.33,0-3.63-.17-6.28-.45-8.2-.11-.74-.37-1.75-.73-2.06-.37-.31-.68-.28-1.32-.28l-.89-.03.05-2.06c2.85-.42,5.43-.8,6.79-1.15,1.34-.34,3.08-.94,5.21-1.77Z"/>
      <path class="cls-77" d="m105.7,47.53c.98.98,2.07,1.72,3.33,2.34,1.31.66,2.81,1.03,4.15,1,1.38-.03,3.11-.58,3.77-1.14,1.2-1.04,1.83-2.12,2.12-4.18.19-1.42-.26-3.81-.97-4.83-.7-.98-2.17-2.39-4.52-3.14-2.51-.81-4.27-.97-5.64-1.43-1.32-.44-2.57-1.37-3.41-2.49-1.13-1.5-1.43-3.58-1.43-5.25,0-3.12.98-4.92,3.24-6.87,2.26-1.95,5.96-2.93,10.12-2.93,3.28,0,6.55.66,9.82,1.97-.21,1.59-.38,4.26-.5,8.01h-2.11c.16-1.86-.05-3.02-.35-3.74-.34-.84-.79-1.95-2.22-2.65-1.42-.71-2.36-1.04-4.23-.98-.87.03-2.5.69-3.49,1.63-1.22,1.14-1.93,2.42-1.93,4.07s.23,3.12.86,4.23c.75,1.31,1.26,2.37,5.26,3.12,3.03.57,6.02,1.42,7.09,2.01,1.08.59,2.43,1.71,3.1,2.9.65,1.19.85,2.02.85,3.57,0,3.16-.95,6.57-3.92,8.51-2.87,1.88-5.74,2.5-10.75,2.37-2.88-.08-6.33-.8-9.91-1.69-.63-.16-.95-.41-.95-.74l.11-.49c.09-.35.17-.98.24-1.87.21-2.28.54-3.99.54-3.99,0,0,.88,1.83,1.73,2.67Z"/>
      <path class="cls-77" d="m163.26,47.6l-.5,3.09c-1.59.87-3.23,1.52-4.92,1.95-1.69.43-3.41.65-5.17.65-3.44,0-6.36-.66-8.77-1.97-2.4-1.31-4.67-3.22-5.98-5.7-1.31-2.48-1.55-5.43-1.55-8.85,0-3.03.5-5.66,1.51-7.89,1.01-2.24,2.51-3.87,4.23-5.25,2.36-1.89,4.34-3.05,6.46-3.86,1.97-.75,4.41-1.17,6.78-1.17,1.8,0,3.36.15,4.65.44,1.3.29,2.7.82,4.2,1.57-.59,3.1-.9,6.2-.95,9.3h-2.22v-1.69c0-1.5.18-2.23-.18-3.3-.25-.72-.71-1.53-2.14-2.24-1.48-.74-2.47-.89-4.29-.8-2.13.12-4.14,1.49-5.86,3.43-1.71,1.93-2.65,4.61-2.73,8.44-.12,4.88.65,9.9,2.79,12.44,2.33,2.78,3.86,3.46,7.45,3.46,1.41,0,1.89-.14,3.25-.49,1.36-.36,2.59-.91,3.93-1.58Z"/>
      <path class="cls-77" d="m170.5,35.73c0-3.23.75-6.15,2.25-8.77,1.5-2.61,3.59-4.66,6.3-6.13,2.71-1.47,5.78-2.22,9.22-2.22,5,0,8.99,1.48,11.98,4.43,3,2.95,4.51,6.88,4.51,11.8,0,5.81-1.96,10.42-5.88,13.85-3.49,3.06-7.35,4.6-12.54,4.6-4.06,0-8.5-1.58-11.43-4.73-2.94-3.15-4.41-7.43-4.41-12.84Zm8.98-2.48c.16,3.94.86,9.04,2.97,12.41,2.12,3.37,5.15,5.2,6.37,5.2,1.78,0,3.47-.56,4.72-2.06,1.81-2.13,2.12-5.16,2.12-9.54,0-3.55-.37-6.61-1.32-9.57-.85-2.66-1.96-4.77-3.52-6.63-1.34-1.57-2.52-1.94-3.68-1.94-1.64,0-2.82.6-3.66,1.22-1.48,1.1-2.6,2.61-3.23,4.21-.75,1.92-.87,4.2-.77,6.7Z"/>
      <path class="cls-77" d="m224.78.42c-.4,6.86-.6,13.07-.6,18.62l-.03,18.06c0,7.17.18,11.23.5,12.19.16.49.93.81,2.32.95l2.77.32v2.04c-2.57-.16-5-.25-7.33-.25-2.58,0-4.96.21-9.13.38,0,0,.67-1.3,1.15-3.84.2-1.06.57-4.66.57-12.06l-.21-17.45-.04-6.74-.4-5.11c0-1.15-.13-1.85-.4-2.1-.38-.38-.33-.57-1.53-.57h-1.06v-2.11c4.89-.44,9.9-1.36,12.81-2.74l.6.42Z"/>
      <path class="cls-77" d="m238.38,28.17s-.32-1.02-.37-2.24c-.04-1.22,0-2.54,0-2.54,0,0,1.93-2.05,3.58-2.8,1.25-.58,3.14-1.25,4.77-1.68,1.18-.32,3.42-.33,4.57-.3,3.23.11,5.84.73,7.82,2.18,1.98,1.45,3.53,3.3,3.93,5.54.28,1.68.46,5.85.53,12.53.04,6.29.18,9.76.42,10.42.24.66.82.99,1.75.99h2.38v2.31c-2.67-.16-4.53-.25-5.58-.25-1.32,0-5.6.08-7.81.25l.27-1.77c.16-1.28.34-3.32.32-4.35,0,0-2.45,4.01-3.98,4.96-1.55.94-2.65,1.37-3.28,1.57-.63.2-1.51.3-2.64.3-3.01,0-5.32-.74-6.92-2.23-1.59-1.48-2.39-3.48-2.39-5.98,0-2.36.57-4.43,1.71-6.19,1.13-1.77,2.74-3.07,4.84-3.92,2.09-.83,5.01-1.88,12.66-3.23-.05-2.98-.29-5.16-1.23-6.56-1.35-2.03-2.67-2.94-5.62-2.94-1.12,0-2.65.46-3.35.79-.92.43-1.81.91-2.72,1.59-2.25,1.69-3.66,3.55-3.66,3.55Zm16.57,5.64c-6.51,1.41-6.52,1.76-8.28,2.98-1.76,1.23-2.81,3.67-2.81,6.24,0,1.73.51,3.12,1.51,4.15s1.55,1.65,3.03,1.65,2.25-.25,3.61-1.21c1.64-1.14,1.43-1.97,2.93-4.32v-9.5Z"/>
      <path class="cls-79" d="m280.66,37.04c4.38,0,7.73,3.31,7.73,7.51s-3.36,7.65-7.73,7.65-7.68-3.36-7.68-7.65,3.49-7.51,7.68-7.51Zm.05,13.77c3.4,0,5.97-2.78,5.97-6.22s-2.57-6.22-6.02-6.22-6.04,2.82-6.04,6.17c0,3.74,2.94,6.26,6.09,6.26Zm-2.86-2.19v-7.81c.75-.13,1.64-.25,2.73-.25,2.3,0,3.32.92,3.32,2.27,0,.96-.71,1.55-1.56,1.8v.13c.72.25,1.1.88,1.31,1.93.25,1.18.41,1.63.62,1.93h-1.59c-.26-.3-.42-.97-.63-2.01-.3-1.26-1.01-1.26-2.7-1.26v3.28h-1.5Zm1.5-4.41c1.44,0,2.96,0,2.96-1.23,0-.71-.51-1.26-1.85-1.26-.55,0-.89.05-1.11.08v2.4Z"/>
      <g>
        <path class="cls-79" d="m86.52,3.34c1.55,0,2.89.56,4.01,1.69,1.11,1.15,1.67,2.5,1.67,4.1s-.56,2.94-1.67,4.06c-1.12,1.12-2.46,1.67-4.01,1.67s-2.94-.55-4.06-1.67c-1.11-1.12-1.67-2.47-1.67-4.06s.56-2.95,1.67-4.1c1.12-1.12,2.47-1.69,4.06-1.69Z"/>
        <path class="cls-88" d="m86.5,3.37c1.54,0,2.87.55,3.98,1.67s1.66,2.48,1.66,4.06-.55,2.91-1.66,4.02-2.44,1.66-3.98,1.66-2.92-.55-4.02-1.66-1.66-2.44-1.66-4.02.55-2.93,1.66-4.06,2.45-1.67,4.02-1.67Z"/>
        <path class="cls-76" d="m86.47,3.39c1.52,0,2.85.55,3.94,1.65s1.65,2.46,1.65,4.02-.55,2.88-1.65,3.99-2.42,1.64-3.94,1.64-2.89-.54-3.99-1.64-1.65-2.42-1.65-3.99.54-2.9,1.65-4.02,2.43-1.65,3.99-1.65Z"/>
        <path class="cls-94" d="m86.44,3.41c1.51,0,2.82.54,3.91,1.64s1.63,2.43,1.63,3.98-.54,2.86-1.63,3.95-2.4,1.62-3.91,1.62-2.87-.54-3.95-1.62-1.63-2.4-1.63-3.95.54-2.88,1.63-3.98,2.4-1.64,3.95-1.64Z"/>
        <path class="cls-90" d="m86.42,3.44c1.5,0,2.8.53,3.87,1.62s1.62,2.41,1.62,3.94-.54,2.83-1.62,3.91-2.38,1.61-3.87,1.61-2.84-.53-3.92-1.61-1.62-2.38-1.62-3.91.54-2.85,1.62-3.94,2.38-1.62,3.92-1.62Z"/>
        <path class="cls-92" d="m86.39,3.46c1.48,0,2.77.53,3.84,1.6s1.61,2.39,1.61,3.91-.54,2.8-1.61,3.87-2.35,1.59-3.84,1.59-2.81-.53-3.88-1.59-1.61-2.35-1.61-3.87.53-2.82,1.61-3.91,2.36-1.6,3.88-1.6Z"/>
        <path class="cls-95" d="m86.37,3.49c1.47,0,2.75.52,3.8,1.59s1.59,2.36,1.59,3.87-.53,2.78-1.59,3.83-2.33,1.57-3.8,1.57-2.79-.52-3.85-1.58-1.59-2.33-1.59-3.83.53-2.79,1.59-3.87,2.34-1.59,3.85-1.59Z"/>
        <path class="cls-60" d="m86.34,3.51c1.45,0,2.72.52,3.77,1.57s1.58,2.34,1.58,3.83-.53,2.75-1.58,3.8-2.31,1.56-3.77,1.56-2.76-.51-3.81-1.56-1.58-2.31-1.58-3.8.52-2.77,1.58-3.83,2.32-1.57,3.81-1.57Z"/>
        <path class="cls-59" d="m86.32,3.54c1.44,0,2.69.51,3.73,1.55s1.57,2.32,1.57,3.79-.52,2.72-1.57,3.76-2.29,1.54-3.73,1.54-2.74-.51-3.77-1.54-1.57-2.28-1.57-3.76.52-2.74,1.57-3.79,2.3-1.55,3.77-1.55Z"/>
        <path class="cls-68" d="m86.29,3.56c1.43,0,2.67.51,3.69,1.54s1.55,2.29,1.55,3.75-.52,2.69-1.55,3.72c-1.03,1.02-2.27,1.53-3.7,1.53s-2.71-.5-3.74-1.53-1.55-2.26-1.55-3.72.52-2.71,1.55-3.75,2.27-1.54,3.74-1.54Z"/>
        <path class="cls-71" d="m86.27,3.59c1.41,0,2.64.5,3.66,1.52s1.54,2.27,1.54,3.71-.52,2.67-1.54,3.68c-1.02,1.01-2.25,1.51-3.66,1.51s-2.68-.5-3.7-1.51-1.54-2.24-1.54-3.68.51-2.68,1.54-3.71,2.25-1.52,3.7-1.52Z"/>
        <path class="cls-75" d="m86.24,3.61c1.4,0,2.62.5,3.62,1.5s1.53,2.24,1.53,3.68-.51,2.64-1.53,3.65c-1.01,1-2.23,1.49-3.62,1.49s-2.66-.5-3.67-1.49c-1.01-1.01-1.53-2.21-1.53-3.64s.51-2.66,1.53-3.68,2.23-1.5,3.67-1.5Z"/>
        <path class="cls-70" d="m86.22,3.64c1.39,0,2.59.49,3.59,1.49s1.52,2.22,1.52,3.64-.51,2.61-1.51,3.61c-1,.99-2.2,1.48-3.59,1.48s-2.63-.49-3.63-1.48c-1-1-1.51-2.19-1.51-3.61s.5-2.63,1.51-3.64,2.21-1.49,3.63-1.49Z"/>
        <path class="cls-74" d="m86.19,3.66c1.37,0,2.57.49,3.55,1.47s1.5,2.2,1.5,3.6-.51,2.58-1.5,3.57c-.99.98-2.18,1.46-3.55,1.46s-2.6-.49-3.6-1.46c-.99-.99-1.5-2.17-1.5-3.57s.5-2.6,1.5-3.6,2.19-1.47,3.6-1.47Z"/>
        <path class="cls-73" d="m86.17,3.69c1.36,0,2.54.48,3.52,1.46s1.49,2.17,1.49,3.56-.5,2.56-1.49,3.53c-.98.96-2.16,1.44-3.52,1.44s-2.58-.48-3.56-1.44c-.99-.97-1.49-2.15-1.49-3.53s.5-2.57,1.49-3.56,2.17-1.46,3.56-1.46Z"/>
        <path class="cls-82" d="m86.14,3.71c1.35,0,2.52.48,3.48,1.44s1.48,2.15,1.48,3.52-.5,2.53-1.48,3.49c-.97.95-2.14,1.43-3.48,1.43s-2.55-.47-3.53-1.43c-.98-.96-1.47-2.12-1.47-3.49s.49-2.55,1.47-3.52,2.14-1.44,3.53-1.44Z"/>
        <path class="cls-89" d="m86.11,3.74c1.33,0,2.49.47,3.45,1.42s1.46,2.13,1.46,3.49-.49,2.5-1.46,3.46c-.96.94-2.12,1.41-3.45,1.41s-2.53-.47-3.49-1.41c-.97-.95-1.46-2.1-1.46-3.46s.49-2.52,1.46-3.49,2.12-1.42,3.49-1.42Z"/>
        <path class="cls-81" d="m86.09,3.76c1.32,0,2.47.47,3.41,1.41s1.45,2.1,1.45,3.45-.49,2.48-1.45,3.42c-.95.93-2.1,1.4-3.41,1.4s-2.5-.46-3.45-1.4c-.96-.94-1.45-2.08-1.45-3.42s.48-2.49,1.45-3.45,2.1-1.41,3.45-1.41Z"/>
        <path class="cls-80" d="m86.06,3.79c1.3,0,2.44.46,3.38,1.39s1.44,2.08,1.44,3.41-.49,2.45-1.44,3.38c-.94.92-2.07,1.38-3.38,1.38s-2.48-.46-3.42-1.38c-.95-.93-1.43-2.05-1.43-3.38s.48-2.46,1.44-3.41,2.08-1.39,3.42-1.39Z"/>
        <path class="cls-78" d="m86.04,3.81c1.29,0,2.41.46,3.34,1.37s1.42,2.06,1.42,3.37-.48,2.42-1.42,3.34c-.93.91-2.05,1.36-3.34,1.36s-2.45-.45-3.38-1.36c-.94-.92-1.42-2.03-1.42-3.34s.48-2.44,1.42-3.37,2.06-1.37,3.38-1.37Z"/>
        <path class="cls-72" d="m86.01,3.84c1.28,0,2.39.45,3.31,1.36s1.41,2.03,1.41,3.33-.48,2.39-1.41,3.3c-.92.9-2.03,1.35-3.31,1.35s-2.42-.45-3.35-1.35c-.93-.91-1.41-2.01-1.41-3.3s.47-2.41,1.41-3.33,2.04-1.36,3.35-1.36Z"/>
        <path class="cls-69" d="m85.99,3.86c1.26,0,2.36.45,3.27,1.34s1.4,2.01,1.4,3.29-.47,2.37-1.4,3.27c-.91.89-2.01,1.33-3.27,1.33s-2.4-.44-3.31-1.33c-.92-.9-1.39-1.98-1.39-3.27s.47-2.38,1.4-3.29,2.02-1.34,3.31-1.34Z"/>
        <path class="cls-11" d="m85.96,3.88c1.25,0,2.34.44,3.24,1.32s1.38,1.99,1.38,3.26-.47,2.34-1.38,3.23c-.9.88-1.99,1.31-3.24,1.31s-2.37-.44-3.28-1.31c-.91-.89-1.38-1.96-1.38-3.23s.46-2.36,1.38-3.26,1.99-1.32,3.28-1.32Z"/>
        <path class="cls-2" d="m85.94,3.91c1.24,0,2.31.43,3.2,1.31s1.37,1.96,1.37,3.22-.46,2.31-1.37,3.19c-.89.87-1.97,1.3-3.2,1.3s-2.35-.43-3.24-1.3c-.9-.88-1.37-1.94-1.37-3.19s.46-2.33,1.37-3.22,1.97-1.31,3.24-1.31Z"/>
        <path class="cls-10" d="m85.91,3.93c1.22,0,2.29.43,3.17,1.29s1.36,1.94,1.36,3.18-.46,2.29-1.36,3.15c-.88.85-1.95,1.28-3.17,1.28s-2.32-.43-3.21-1.28c-.9-.87-1.36-1.91-1.36-3.15s.46-2.3,1.36-3.18,1.95-1.29,3.2-1.29Z"/>
        <path class="cls-1" d="m85.89,3.96c1.21,0,2.26.42,3.13,1.27s1.34,1.92,1.34,3.14-.46,2.26-1.34,3.12c-.87.84-1.92,1.26-3.13,1.26s-2.3-.42-3.17-1.26c-.89-.86-1.34-1.89-1.34-3.12s.45-2.27,1.34-3.14,1.93-1.27,3.17-1.27Z"/>
        <path class="cls-3" d="m85.86,3.98c1.19,0,2.24.42,3.1,1.26s1.33,1.89,1.33,3.1-.45,2.23-1.33,3.08c-.86.83-1.9,1.25-3.1,1.25s-2.27-.42-3.13-1.25c-.88-.85-1.33-1.87-1.33-3.08s.45-2.25,1.33-3.1,1.91-1.26,3.13-1.26Z"/>
        <path class="cls-5" d="m85.83,4.01c1.18,0,2.21.41,3.06,1.24s1.32,1.87,1.32,3.07-.45,2.21-1.32,3.04c-.85.82-1.88,1.23-3.06,1.23s-2.24-.41-3.1-1.23c-.87-.84-1.32-1.85-1.32-3.04s.44-2.22,1.32-3.07,1.89-1.24,3.1-1.24Z"/>
        <path class="cls-64" d="m85.81,4.03c1.17,0,2.19.41,3.03,1.22s1.3,1.85,1.3,3.03-.44,2.18-1.3,3c-.84.81-1.86,1.22-3.03,1.22s-2.22-.4-3.06-1.22c-.86-.82-1.3-1.82-1.3-3s.44-2.19,1.3-3.03,1.86-1.22,3.06-1.22Z"/>
        <path class="cls-51" d="m85.78,4.06c1.15,0,2.16.4,2.99,1.21s1.29,1.82,1.29,2.99-.44,2.15-1.29,2.96c-.83.8-1.84,1.2-2.99,1.2s-2.19-.4-3.03-1.2c-.85-.81-1.29-1.8-1.29-2.96s.44-2.16,1.29-2.99,1.84-1.21,3.03-1.21Z"/>
        <path class="cls-56" d="m85.76,4.08c1.14,0,2.13.4,2.96,1.19s1.28,1.8,1.28,2.95-.44,2.12-1.28,2.93c-.82.79-1.82,1.18-2.96,1.18s-2.17-.39-2.99-1.18c-.84-.8-1.28-1.78-1.28-2.93s.43-2.14,1.28-2.95,1.82-1.19,2.99-1.19Z"/>
        <path class="cls-53" d="m85.73,4.11c1.13,0,2.11.39,2.92,1.17s1.27,1.78,1.27,2.91-.43,2.1-1.26,2.89c-.81.78-1.8,1.17-2.92,1.17s-2.14-.39-2.96-1.17c-.83-.79-1.26-1.75-1.26-2.89s.43-2.11,1.26-2.91,1.8-1.18,2.96-1.18Z"/>
        <path class="cls-54" d="m85.71,4.13c1.11,0,2.08.39,2.89,1.16s1.25,1.75,1.25,2.87-.43,2.07-1.25,2.85c-.8.77-1.77,1.15-2.89,1.15s-2.12-.38-2.92-1.15c-.82-.78-1.25-1.73-1.25-2.85s.42-2.08,1.25-2.87,1.78-1.16,2.92-1.16Z"/>
        <path class="cls-57" d="m85.68,4.16c1.1,0,2.06.38,2.85,1.14s1.24,1.73,1.24,2.84-.42,2.04-1.24,2.81c-.79.76-1.75,1.13-2.85,1.13s-2.09-.38-2.88-1.13c-.81-.77-1.24-1.71-1.24-2.81s.42-2.05,1.24-2.84,1.76-1.14,2.88-1.14Z"/>
        <path class="cls-9" d="m85.66,4.18c1.09,0,2.03.38,2.82,1.13.81.77,1.23,1.71,1.23,2.8s-.42,2.02-1.22,2.78c-.78.74-1.73,1.12-2.82,1.12s-2.06-.37-2.85-1.12c-.8-.76-1.22-1.68-1.22-2.78s.42-2.03,1.22-2.8,1.74-1.13,2.85-1.13Z"/>
        <path class="cls-83" d="m85.63,4.21c1.07,0,2.01.37,2.78,1.11.8.76,1.21,1.68,1.21,2.76s-.41,1.99-1.21,2.74c-.78.73-1.71,1.1-2.78,1.1s-2.04-.37-2.81-1.1c-.8-.75-1.21-1.66-1.21-2.74s.41-2,1.21-2.76c.78-.74,1.71-1.11,2.81-1.11Z"/>
        <path class="cls-84" d="m85.61,4.23c1.06,0,1.98.37,2.75,1.09.79.75,1.2,1.66,1.2,2.72s-.41,1.96-1.2,2.7c-.77.72-1.69,1.08-2.75,1.08s-2.01-.36-2.78-1.08c-.79-.74-1.2-1.64-1.2-2.7s.41-1.97,1.2-2.72c.77-.73,1.69-1.09,2.78-1.09Z"/>
        <path class="cls-85" d="m85.58,4.26c1.04,0,1.96.36,2.71,1.08.78.74,1.19,1.64,1.19,2.68s-.41,1.93-1.18,2.66c-.76.71-1.67,1.07-2.71,1.07s-1.99-.36-2.74-1.07c-.78-.73-1.18-1.61-1.18-2.66s.41-1.94,1.18-2.68c.76-.71,1.67-1.08,2.74-1.08Z"/>
        <path class="cls-91" d="m85.55,4.28c1.03,0,1.93.36,2.68,1.06.77.73,1.17,1.61,1.17,2.65s-.4,1.91-1.17,2.62c-.75.7-1.64,1.05-2.68,1.05s-1.96-.35-2.71-1.05c-.77-.72-1.17-1.59-1.17-2.62s.4-1.92,1.17-2.65c.75-.7,1.65-1.06,2.71-1.06Z"/>
        <path class="cls-86" d="m85.53,4.31c1.02,0,1.9.35,2.64,1.04.76.72,1.16,1.59,1.16,2.61s-.4,1.88-1.16,2.59-1.62,1.04-2.64,1.04-1.94-.35-2.67-1.04c-.76-.71-1.16-1.57-1.16-2.59s.4-1.89,1.16-2.61c.74-.69,1.63-1.04,2.67-1.04Z"/>
        <path class="cls-87" d="m85.5,4.33c1,0,1.88.35,2.61,1.03.75.71,1.15,1.57,1.15,2.57s-.4,1.85-1.15,2.55-1.6,1.02-2.61,1.02-1.91-.34-2.64-1.02-1.14-1.55-1.14-2.55.39-1.86,1.14-2.57c.73-.68,1.61-1.03,2.63-1.03Z"/>
        <path class="cls-14" d="m85.48,4.36c.99,0,1.85.34,2.57,1.01.74.7,1.13,1.54,1.13,2.53s-.39,1.82-1.13,2.51-1.58,1-2.57,1-1.88-.34-2.6-1-1.13-1.52-1.13-2.51.39-1.83,1.13-2.53c.72-.67,1.58-1.01,2.6-1.01Z"/>
        <path class="cls-4" d="m85.45,4.38c.98,0,1.83.33,2.53.99.73.69,1.12,1.52,1.12,2.49s-.39,1.8-1.12,2.47-1.56.99-2.54.99-1.86-.33-2.56-.99-1.12-1.5-1.12-2.47.39-1.81,1.12-2.49c.71-.66,1.56-.99,2.56-.99Z"/>
        <path class="cls-8" d="m85.43,4.4c.96,0,1.8.33,2.5.98.73.67,1.11,1.5,1.11,2.45s-.38,1.77-1.11,2.44-1.54.97-2.5.97-1.83-.33-2.53-.97-1.1-1.48-1.1-2.44.38-1.78,1.1-2.45c.7-.65,1.54-.98,2.53-.98Z"/>
        <path class="cls-6" d="m85.4,4.43c.95,0,1.78.32,2.46.96.72.66,1.09,1.47,1.09,2.42s-.38,1.74-1.09,2.4-1.52.95-2.47.95-1.8-.32-2.49-.95-1.09-1.45-1.09-2.4.38-1.75,1.09-2.42c.69-.64,1.52-.96,2.49-.96Z"/>
        <path class="cls-67" d="m85.38,4.45c.94,0,1.75.32,2.43.94.71.65,1.08,1.45,1.08,2.38s-.38,1.72-1.08,2.36-1.49.94-2.43.94-1.78-.32-2.46-.94-1.08-1.43-1.08-2.36.37-1.72,1.08-2.38c.68-.63,1.5-.94,2.46-.94Z"/>
        <path class="cls-7" d="m85.35,4.48c.92,0,1.73.31,2.39.93.7.64,1.07,1.43,1.07,2.34s-.37,1.69-1.07,2.32-1.47.92-2.4.92-1.75-.31-2.42-.92-1.06-1.41-1.06-2.32.37-1.7,1.07-2.34c.67-.61,1.48-.93,2.42-.93Z"/>
        <path class="cls-93" d="m85.33,4.5c.91,0,1.7.31,2.36.91.69.63,1.05,1.4,1.05,2.3s-.37,1.66-1.05,2.28-1.45.9-2.36.9-1.73-.31-2.39-.91-1.05-1.38-1.05-2.28.36-1.67,1.05-2.3c.66-.6,1.45-.91,2.39-.91Z"/>
        <path class="cls-23" d="m85.3,4.53c.89,0,1.68.3,2.32.89.68.62,1.04,1.38,1.04,2.26s-.36,1.63-1.04,2.25-1.43.89-2.33.89-1.7-.3-2.35-.89-1.04-1.36-1.04-2.25.36-1.64,1.04-2.26c.65-.59,1.43-.89,2.35-.89Z"/>
        <path class="cls-35" d="m85.27,4.55c.88,0,1.65.3,2.29.88.67.61,1.03,1.35,1.03,2.23s-.36,1.61-1.03,2.21-1.41.87-2.29.87-1.68-.3-2.32-.87-1.02-1.34-1.02-2.21.36-1.62,1.03-2.22c.64-.58,1.41-.88,2.31-.88Z"/>
        <path class="cls-61" d="m85.25,4.58c.87,0,1.63.29,2.25.86.66.6,1.02,1.33,1.02,2.19s-.36,1.58-1.01,2.17-1.39.86-2.26.86-1.65-.29-2.28-.86-1.01-1.31-1.01-2.17.35-1.59,1.01-2.19c.63-.57,1.39-.86,2.28-.86Z"/>
        <path class="cls-66" d="m85.22,4.6c.85,0,1.6.29,2.22.84.65.59,1,1.31,1,2.15s-.35,1.55-1,2.13-1.37.84-2.22.84-1.62-.28-2.24-.84-1-1.29-1-2.13.35-1.56,1-2.15c.62-.56,1.37-.85,2.24-.85Z"/>
        <path class="cls-65" d="m85.2,4.63c.84,0,1.57.28,2.18.83.64.58.99,1.28.99,2.11s-.35,1.53-.99,2.1-1.34.82-2.18.82-1.6-.28-2.21-.82-.98-1.27-.98-2.09.34-1.53.99-2.11c.61-.55,1.35-.83,2.21-.83Z"/>
        <path class="cls-63" d="m85.17,4.65c.83,0,1.55.28,2.15.81.63.57.98,1.26.98,2.07s-.34,1.5-.97,2.06-1.32.81-2.15.81-1.57-.27-2.17-.81c-.63-.56-.97-1.25-.97-2.06s.34-1.51.97-2.07c.6-.54,1.33-.81,2.17-.81Z"/>
        <path class="cls-26" d="m85.15,4.68c.81,0,1.52.27,2.11.79.62.56.96,1.24.96,2.03s-.34,1.47-.96,2.02-1.3.79-2.11.79-1.55-.27-2.14-.79c-.62-.55-.96-1.22-.96-2.02s.34-1.48.96-2.03c.59-.53,1.3-.8,2.14-.8Z"/>
        <path class="cls-18" d="m85.12,4.7c.8,0,1.5.27,2.08.78.62.55.95,1.21.95,2s-.33,1.44-.95,1.98c-.58.51-1.28.77-2.08.77s-1.52-.26-2.1-.77c-.61-.54-.94-1.2-.94-1.98s.33-1.45.95-2c.58-.51,1.28-.78,2.1-.78Z"/>
        <path class="cls-33" d="m85.1,4.73c.79,0,1.47.26,2.04.76.61.53.94,1.19.94,1.96s-.33,1.42-.93,1.94c-.57.5-1.26.76-2.04.76s-1.5-.26-2.07-.76c-.6-.53-.93-1.18-.93-1.94s.33-1.42.93-1.96c.57-.5,1.26-.76,2.06-.76Z"/>
        <path class="cls-34" d="m85.07,4.75c.77,0,1.45.25,2.01.75.6.52.92,1.17.92,1.92s-.33,1.39-.92,1.91c-.56.49-1.24.74-2.01.74s-1.47-.25-2.03-.74c-.59-.52-.92-1.15-.92-1.91s.32-1.4.92-1.92c.56-.49,1.24-.75,2.03-.75Z"/>
        <path class="cls-32" d="m85.05,4.78c.76,0,1.42.25,1.97.73.59.51.91,1.14.91,1.88s-.32,1.36-.91,1.87c-.55.48-1.22.72-1.97.72s-1.44-.25-2-.73c-.58-.51-.91-1.13-.91-1.87s.32-1.37.91-1.88c.55-.48,1.22-.73,1.99-.73Z"/>
        <path class="cls-30" d="m85.02,4.8c.74,0,1.4.24,1.94.71.58.5.9,1.12.9,1.84s-.32,1.34-.89,1.83c-.54.47-1.19.71-1.94.71s-1.42-.24-1.96-.71c-.58-.5-.89-1.11-.89-1.83s.32-1.34.89-1.84c.54-.47,1.2-.71,1.96-.71Z"/>
        <path class="cls-17" d="m84.99,4.83c.73,0,1.37.24,1.9.7.57.49.88,1.1.88,1.81s-.31,1.31-.88,1.79c-.53.45-1.17.69-1.9.69s-1.39-.24-1.92-.69c-.57-.48-.88-1.08-.88-1.79s.31-1.31.88-1.8c.53-.46,1.17-.7,1.92-.7Z"/>
        <path class="cls-21" d="m84.97,4.85c.72,0,1.35.23,1.87.68.56.48.87,1.07.87,1.77s-.31,1.28-.87,1.76c-.52.44-1.15.68-1.87.68s-1.37-.23-1.89-.68c-.56-.47-.87-1.06-.87-1.75s.31-1.29.87-1.77c.52-.45,1.15-.68,1.89-.68Z"/>
        <path class="cls-24" d="m84.94,4.88c.7,0,1.32.23,1.83.66.55.47.86,1.05.86,1.73s-.31,1.25-.86,1.72c-.51.43-1.13.66-1.83.66s-1.34-.23-1.85-.66c-.55-.46-.85-1.04-.85-1.72s.3-1.26.85-1.73c.51-.44,1.13-.66,1.85-.66Z"/>
        <path class="cls-55" d="m84.92,4.9c.69,0,1.3.22,1.8.65.54.46.84,1.03.84,1.69s-.3,1.23-.84,1.68c-.5.42-1.11.64-1.8.64s-1.31-.22-1.82-.64c-.54-.45-.84-1.01-.84-1.68s.3-1.23.84-1.69c.5-.42,1.11-.65,1.82-.65Z"/>
        <path class="cls-12" d="m84.89,4.92c.68,0,1.27.22,1.76.63.53.45.83,1,.83,1.65s-.3,1.2-.83,1.64c-.49.41-1.09.63-1.76.63s-1.29-.22-1.78-.63c-.53-.44-.83-.99-.83-1.64s.3-1.2.83-1.65c.49-.41,1.09-.63,1.78-.63Z"/>
        <path class="cls-16" d="m84.87,4.95c.66,0,1.24.21,1.73.61.52.44.82.98.82,1.61s-.29,1.17-.82,1.6c-.48.4-1.06.61-1.73.61s-1.26-.21-1.75-.61c-.52-.43-.81-.97-.81-1.6s.29-1.18.81-1.61c.48-.4,1.07-.61,1.74-.61Z"/>
        <path class="cls-15" d="m84.84,4.97c.65,0,1.22.21,1.69.6.51.43.8.96.8,1.58s-.29,1.15-.8,1.57c-.47.39-1.04.59-1.69.59s-1.24-.21-1.71-.59c-.51-.42-.8-.95-.8-1.57s.29-1.15.8-1.58c.47-.39,1.05-.6,1.71-.6Z"/>
        <path class="cls-13" d="m84.82,5c.64,0,1.19.2,1.66.58.51.42.79.93.79,1.54s-.29,1.12-.79,1.53c-.46.38-1.02.58-1.66.58s-1.21-.2-1.67-.58c-.5-.41-.79-.92-.79-1.53s.28-1.12.79-1.54c.46-.38,1.02-.58,1.67-.58Z"/>
        <path class="cls-62" d="m84.79,5.02c.62,0,1.17.2,1.62.56.5.4.78.91.78,1.5s-.28,1.09-.78,1.49c-.45.37-1,.56-1.62.56s-1.19-.19-1.64-.56c-.49-.4-.77-.9-.77-1.49s.28-1.09.77-1.5c.45-.37,1-.56,1.64-.56Z"/>
        <path class="cls-52" d="m84.77,5.05c.61,0,1.14.19,1.59.55.49.39.76.89.76,1.46s-.28,1.06-.76,1.45c-.44.36-.98.54-1.59.54s-1.16-.19-1.6-.55c-.48-.39-.76-.88-.76-1.45s.28-1.07.76-1.46c.44-.36.98-.55,1.6-.55Z"/>
        <path class="cls-19" d="m84.74,5.07c.59,0,1.12.18,1.55.53.48.38.75.86.75,1.42s-.27,1.04-.75,1.42c-.43.34-.96.53-1.55.53s-1.13-.18-1.57-.53c-.48-.38-.75-.85-.75-1.41s.27-1.04.75-1.42c.43-.35.96-.53,1.57-.53Z"/>
        <path class="cls-28" d="m84.71,5.1c.58,0,1.09.18,1.52.51.47.37.74.84.74,1.39s-.27,1.01-.74,1.38c-.42.33-.94.51-1.52.51s-1.11-.18-1.53-.51c-.47-.37-.73-.83-.73-1.38s.27-1.01.74-1.38c.42-.34.94-.52,1.53-.52Z"/>
        <path class="cls-29" d="m84.69,5.12c.57,0,1.07.17,1.48.5.46.36.73.82.73,1.35s-.26.98-.72,1.34c-.41.32-.91.5-1.48.5s-1.08-.17-1.5-.5c-.46-.36-.72-.81-.72-1.34s.26-.99.72-1.35c.41-.32.92-.5,1.49-.5Z"/>
        <path class="cls-22" d="m84.66,5.15c.55,0,1.04.17,1.45.48.45.35.71.79.71,1.31s-.26.96-.71,1.3c-.4.31-.89.48-1.45.48s-1.06-.17-1.46-.48c-.45-.35-.71-.78-.71-1.3s.26-.96.71-1.31c.4-.31.89-.48,1.46-.48Z"/>
        <path class="cls-20" d="m84.64,5.17c.54,0,1.02.16,1.41.46.44.34.7.77.7,1.27s-.26.93-.7,1.26c-.39.3-.87.46-1.41.46s-1.03-.16-1.43-.46c-.44-.34-.69-.76-.69-1.26s.25-.93.7-1.27c.39-.3.87-.47,1.42-.47Z"/>
        <path class="cls-58" d="m84.61,5.2c.53,0,.99.16,1.37.45.43.33.69.75.69,1.23s-.25.9-.68,1.23c-.38.29-.85.45-1.38.45s-1.01-.16-1.39-.45c-.43-.32-.68-.74-.68-1.23s.25-.9.68-1.23c.38-.29.85-.45,1.39-.45Z"/>
        <path class="cls-50" d="m84.59,5.22c.51,0,.97.15,1.34.43.42.32.67.72.67,1.19s-.25.87-.67,1.19c-.37.28-.83.43-1.34.43s-.98-.15-1.35-.43c-.42-.31-.67-.72-.67-1.19s.25-.88.67-1.19c.37-.28.83-.43,1.35-.43Z"/>
        <path class="cls-38" d="m84.56,5.25c.5,0,.94.15,1.3.42.42.31.66.7.66,1.16s-.24.85-.66,1.15c-.36.27-.81.41-1.31.41s-.95-.15-1.32-.41c-.41-.3-.65-.69-.65-1.15s.24-.85.66-1.16c.36-.27.81-.42,1.32-.42Z"/>
        <path class="cls-44" d="m84.54,5.27c.49,0,.92.14,1.27.4.41.3.65.68.65,1.12s-.24.82-.64,1.11c-.35.26-.79.4-1.27.4s-.93-.14-1.28-.4c-.4-.29-.64-.67-.64-1.11s.24-.82.64-1.12c.35-.26.79-.4,1.28-.4Z"/>
        <path class="cls-39" d="m84.51,5.3c.47,0,.89.14,1.23.38.4.28.63.65.63,1.08s-.24.79-.63,1.08c-.34.25-.76.38-1.24.38s-.9-.14-1.25-.38c-.39-.28-.63-.65-.63-1.07s.23-.79.63-1.08c.34-.25.76-.38,1.25-.38Z"/>
        <path class="cls-42" d="m84.49,5.32c.46,0,.87.13,1.2.37.39.27.62.63.62,1.04s-.23.77-.62,1.04c-.33.23-.74.36-1.2.36s-.88-.13-1.21-.37c-.39-.27-.61-.62-.61-1.04s.23-.77.62-1.04c.33-.24.74-.37,1.21-.37Z"/>
        <path class="cls-49" d="m84.46,5.35c.44,0,.84.13,1.16.35.38.26.61.61.61,1s-.23.74-.6,1c-.32.22-.72.35-1.17.35s-.85-.12-1.18-.35c-.38-.26-.6-.6-.6-1s.23-.74.6-1c.32-.23.72-.35,1.17-.35Z"/>
        <path class="cls-37" d="m84.44,5.37c.43,0,.81.12,1.13.33.37.25.59.58.59.97s-.22.71-.59.96c-.31.21-.7.33-1.13.33s-.83-.12-1.14-.33c-.37-.25-.59-.58-.59-.96s.22-.71.59-.96c.31-.21.7-.33,1.14-.33Z"/>
        <path class="cls-41" d="m84.41,5.4c.42,0,.79.11,1.09.32.36.24.58.56.58.93s-.22.69-.58.92c-.3.2-.68.32-1.1.32s-.8-.11-1.11-.32c-.36-.24-.57-.55-.57-.92s.22-.69.58-.93c.3-.2.68-.32,1.1-.32Z"/>
        <path class="cls-47" d="m84.38,5.42c.4,0,.76.11,1.06.3.35.23.57.53.57.89s-.21.66-.56.89c-.29.19-.66.3-1.06.3s-.77-.11-1.07-.3c-.35-.23-.56-.53-.56-.89s.21-.66.56-.89c.29-.19.66-.3,1.07-.3Z"/>
        <path class="cls-36" d="m84.36,5.44c.39,0,.74.1,1.02.28.34.22.55.51.55.85s-.21.63-.55.85c-.28.18-.63.28-1.03.28s-.75-.1-1.03-.28c-.34-.22-.55-.51-.55-.85s.21-.63.55-.85c.28-.18.64-.28,1.03-.28Z"/>
        <path class="cls-46" d="m84.33,5.47c.38,0,.71.1.99.27.34.21.54.49.54.81s-.21.6-.54.81c-.27.17-.61.27-.99.27s-.72-.1-1-.27c-.33-.21-.53-.48-.53-.81s.2-.6.54-.81c.27-.17.61-.27,1-.27Z"/>
        <path class="cls-48" d="m84.31,5.49c.36,0,.69.09.95.25.33.2.53.46.53.77s-.2.58-.53.77c-.26.16-.59.25-.96.25s-.7-.09-.96-.25c-.32-.19-.52-.46-.52-.77s.2-.58.52-.77c.26-.16.59-.25.96-.25Z"/>
        <path class="cls-43" d="m84.28,5.52c.35,0,.66.09.92.23.32.18.51.44.51.74s-.2.55-.51.74c-.25.15-.57.23-.92.23s-.67-.09-.93-.24c-.31-.18-.51-.44-.51-.73s.2-.55.51-.73c.25-.15.57-.24.92-.24Z"/>
        <path class="cls-40" d="m84.26,5.54c.34,0,.64.08.88.22.31.17.5.42.5.7s-.19.52-.5.7c-.24.14-.55.22-.89.22s-.65-.08-.89-.22c-.31-.17-.49-.42-.49-.7s.19-.52.5-.7c.24-.14.55-.22.89-.22Z"/>
        <path class="cls-45" d="m84.23,5.57c.32,0,.61.07.85.2.3.16.49.39.49.66s-.19.5-.49.66c-.23.13-.53.2-.85.2s-.62-.07-.86-.2c-.3-.16-.48-.39-.48-.66s.19-.5.48-.66c.23-.13.53-.2.85-.2Z"/>
        <path class="cls-31" d="m84.21,5.59c.31,0,.59.07.81.18.29.15.48.37.48.62s-.18.47-.47.62c-.22.12-.51.18-.82.18s-.6-.07-.82-.19c-.29-.15-.47-.37-.47-.62s.18-.47.47-.62c.22-.12.51-.19.82-.19Z"/>
        <path class="cls-25" d="m84.18,5.62c.29,0,.56.06.78.17.28.14.46.35.46.58s-.18.45-.46.58c-.21.11-.48.17-.78.17s-.57-.06-.79-.17c-.28-.14-.46-.35-.46-.58s.18-.44.46-.58c.21-.11.48-.17.78-.17Z"/>
        <path class="cls-27" d="m85.35,6.34c0,.39-.53.7-1.19.7s-1.19-.31-1.19-.7.53-.7,1.19-.7,1.19.31,1.19.7Z"/>
      </g>
    </g>
    <line class="cls-96" x1="295.08" y1="68.19" y2="68.19"/>
    <g>
      <path class="cls-79" d="m18.3,98.69c0,6.18-4.2,8.8-8,8.8-4.39,0-7.78-3.2-7.78-8.56,0-5.67,3.64-8.8,8-8.8,4.67,0,7.78,3.47,7.78,8.56Zm-7.87-6.58c-3.7,0-5.24,3.53-5.24,6.73,0,3.69,2.1,6.67,5.18,6.67s5.27-2.98,5.27-6.73c0-2.95-1.47-6.67-5.21-6.67Z"/>
      <path class="cls-79" d="m29.14,93.34c1.19-2.04,3.17-3.2,5.83-3.2,4.05,0,6.96,3.38,6.96,8.47,0,6.09-3.67,8.89-7.43,8.89-2.26,0-4.14-1.01-5.14-2.65h-.06v9.08h-2.6v-18.06c0-2.16-.06-3.84-.12-5.36h2.35l.16,2.83h.06Zm.16,7.19c0,3.23,2.48,4.93,4.8,4.93,3.36,0,5.21-2.8,5.21-6.76,0-3.44-1.79-6.49-5.11-6.49-2.92,0-4.89,2.74-4.89,5.15v3.17Z"/>
      <path class="cls-79" d="m62.65,106.43c-.97.46-2.76,1.03-5.36,1.03-4.99,0-7.97-3.41-7.97-8.38,0-5.21,3.01-8.95,7.62-8.95,5.27,0,6.62,4.69,6.62,7.58,0,.58-.03,1.01-.06,1.4h-11.64c.03,4.6,2.73,6.34,5.8,6.34,2.13,0,3.42-.43,4.49-.85l.5,1.83Zm-1.66-9.2c.03-2.25-.94-5.18-4.3-5.18-3.14,0-4.52,2.89-4.77,5.18h9.06Z"/>
      <path class="cls-79" d="m85.54,107.13h-2.6v-9.81c0-2.71-1-5.09-3.98-5.09-2.23,0-4.49,1.83-4.49,4.72v10.17h-2.6v-12.34c0-1.71-.06-2.95-.12-4.29h2.32l.16,2.71h.06c.85-1.61,2.82-3.08,5.49-3.08,2.13,0,5.77,1.25,5.77,6.88v10.11Z"/>
      <path class="cls-79" d="m107.72,87.61c-1,0-1.69-.76-1.69-1.74s.72-1.71,1.72-1.71,1.69.76,1.69,1.71c0,1.07-.72,1.74-1.72,1.74Zm1.32,19.52h-2.6v-16.6h2.6v16.6Z"/>
      <path class="cls-79" d="m132.19,107.13h-2.6v-9.81c0-2.71-1-5.09-3.98-5.09-2.23,0-4.49,1.83-4.49,4.72v10.17h-2.6v-12.34c0-1.71-.06-2.95-.12-4.29h2.32l.16,2.71h.06c.85-1.61,2.82-3.08,5.49-3.08,2.13,0,5.77,1.25,5.77,6.88v10.11Z"/>
      <path class="cls-79" d="m155.21,107.13h-2.6v-9.81c0-2.71-1-5.09-3.98-5.09-2.23,0-4.49,1.83-4.49,4.72v10.17h-2.6v-12.34c0-1.71-.06-2.95-.12-4.29h2.32l.16,2.71h.06c.85-1.61,2.82-3.08,5.49-3.08,2.13,0,5.77,1.25,5.77,6.88v10.11Z"/>
      <path class="cls-79" d="m179.23,98.69c0,6.18-4.2,8.8-8,8.8-4.39,0-7.78-3.2-7.78-8.56,0-5.67,3.64-8.8,8-8.8,4.67,0,7.78,3.47,7.78,8.56Zm-7.87-6.58c-3.7,0-5.24,3.53-5.24,6.73,0,3.69,2.1,6.67,5.18,6.67s5.27-2.98,5.27-6.73c0-2.95-1.47-6.67-5.21-6.67Z"/>
      <path class="cls-79" d="m200.41,90.53l-6.49,16.6h-2.45l-6.3-16.63h2.79l3.42,9.66c.53,1.49,1,2.89,1.38,4.26h.1c.38-1.37.88-2.77,1.41-4.26l3.39-9.63h2.76Z"/>
      <path class="cls-79" d="m219.05,103.17c0,1.37.03,2.8.25,3.96h-2.38l-.25-2.13h-.09c-.88,1.31-2.64,2.5-5.05,2.5-3.26,0-4.98-2.31-4.98-4.72,0-3.99,3.57-6.15,9.91-6.12,0-1.4,0-4.57-3.89-4.57-1.47,0-3.01.4-4.17,1.19l-.63-1.74c1.38-.88,3.29-1.4,5.21-1.4,4.83,0,6.08,3.32,6.08,6.61v6.43Zm-2.57-4.66c-3.23,0-7.28.46-7.28,3.96,0,2.13,1.38,3.08,2.95,3.08,2.54,0,4.33-1.89,4.33-3.9v-3.14Z"/>
      <path class="cls-79" d="m228.87,87.52l2.57-.85v3.87h4.42v1.98h-4.42v9.59c0,2.1.66,3.26,2.32,3.26.78,0,1.32-.09,1.75-.24l.16,1.95c-.56.24-1.44.4-2.54.4-4.14,0-4.26-3.65-4.26-5.42v-9.53h-2.64v-1.98h2.64v-3.01Z"/>
      <path class="cls-79" d="m244.88,87.61c-1,0-1.69-.76-1.69-1.74s.72-1.71,1.72-1.71,1.69.76,1.69,1.71c0,1.07-.72,1.74-1.72,1.74Zm1.32,19.52h-2.6v-16.6h2.6v16.6Z"/>
      <path class="cls-79" d="m270.29,98.69c0,6.18-4.2,8.8-8,8.8-4.39,0-7.78-3.2-7.78-8.56,0-5.67,3.64-8.8,8-8.8,4.67,0,7.78,3.47,7.78,8.56Zm-7.87-6.58c-3.7,0-5.24,3.53-5.24,6.73,0,3.69,2.1,6.67,5.18,6.67s5.27-2.98,5.27-6.73c0-2.95-1.47-6.67-5.21-6.67Z"/>
      <path class="cls-79" d="m292.36,107.13h-2.6v-9.81c0-2.71-1-5.09-3.98-5.09-2.23,0-4.49,1.83-4.49,4.72v10.17h-2.61v-12.34c0-1.71-.06-2.95-.12-4.29h2.32l.16,2.71h.06c.85-1.61,2.82-3.08,5.49-3.08,2.13,0,5.77,1.25,5.77,6.88v10.11Z"/>
    </g>
  </g>
</svg>