<svg xmlns="http://www.w3.org/2000/svg" role="img" viewBox="-2.76 -2.76 143.39 41.39"><path fill="#141046" d="M67.9569 8.98781v3.67609H56.0845v3.785h11.3278v3.6761H56.0845v6.7259H52V8.98781h15.9569zm8.1446 17.86309c-1.4522 0-2.5778-.345-3.3765-1.0348-.7988-.708-1.1981-1.6883-1.1981-2.9409V7.8986h3.9211v14.2687c0 .4175.1089.7261.3268.9258.2178.1997.5718.2995 1.062.2995h1.1709v3.4583h-1.9062zm12.0994.3267c-1.7064 0-3.1859-.2723-4.4385-.8169-1.2526-.5627-2.2147-1.3615-2.8864-2.3963-.6717-1.0529-1.0075-2.2873-1.0075-3.7033v-.354c0-1.4522.3267-2.7048.9803-3.7577.6716-1.0529 1.6338-1.8608 2.8864-2.4235 1.2526-.5628 2.7411-.8442 4.4657-.8442 1.7065 0 3.1769.2814 4.4113.8442 1.2345.5627 2.1784 1.3706 2.832 2.4235.6717 1.0529 1.0075 2.3055 1.0075 3.7577v.354c0 1.416-.3358 2.6504-1.0075 3.7033-.6536 1.0348-1.5975 1.8336-2.832 2.3963-1.2344.5446-2.7048.8169-4.4113.8169zm-.0272-3.5944c1.3252 0 2.3509-.2904 3.077-.8713.7443-.581 1.1165-1.4069 1.1165-2.478v-.2995c0-1.1074-.3631-1.9606-1.0893-2.5597-.7261-.599-1.7608-.8986-3.1042-.8986-1.3615 0-2.4053.2996-3.1315.8986-.7261.5809-1.0892 1.4342-1.0892 2.5597v.2995c0 1.0711.3631 1.897 1.0892 2.478.7443.5809 1.7881.8713 3.1315.8713zm17.6183-6.8892v5.1737c0 .4902.136.8714.409 1.1437.29.2541.698.3812 1.225.3812h3.213v3.4583h-3.73c-1.562 0-2.796-.4176-3.704-1.2526-.907-.8532-1.361-2.006-1.361-3.4583v-5.446h-4.5477v-3.4855h3.6487c.381 0 .645-.0726.79-.2178.145-.1453.218-.4085.218-.7897V9.58688h3.839v3.62162h5.664v3.4855h-5.664zm12.268-3.4855v13.6424h-3.921V13.2085h3.921zm-1.96-1.5794c-.727 0-1.317-.2087-1.77-.6263-.454-.4356-.681-.9984-.681-1.68823 0-.68983.227-1.24351.681-1.66104C114.783 7.21784 115.373 7 116.1 7c.744 0 1.334.21784 1.77.65353.453.41753.68.97121.68 1.66104s-.227 1.25263-.68 1.68823c-.454.4176-1.044.6263-1.77.6263zm21.787 1.5794V31.48h-3.948v-5.6367c-1.216.8896-2.696 1.3343-4.438 1.3343-1.598 0-2.996-.2904-4.194-.8714-1.18-.5809-2.097-1.3978-2.75-2.4507-.654-1.071-.981-2.3055-.981-3.7033v-.2723c0-1.3978.318-2.6232.954-3.6761.653-1.071 1.579-1.8879 2.777-2.4507 1.198-.5809 2.596-.8714 4.194-.8714 1.779 0 3.313.4993 4.601 1.4977l.109-1.1709h3.676zm-8.005 10.3747c.853 0 1.634-.1361 2.342-.4084.726-.2723 1.298-.6445 1.715-1.1165v-4.0845c-.399-.472-.962-.8351-1.688-1.0892-.708-.2723-1.498-.4085-2.369-.4085-1.325 0-2.36.2996-3.105.8986-.744.5991-1.116 1.4342-1.116 2.5052v.2723c0 1.0892.372 1.9334 1.116 2.5324.745.5991 1.78.8986 3.105.8986z"/><path fill="#0083FC" fill-rule="evenodd" d="M0 4.90909C0 2.19787 2.19787 0 4.90909 0h8.18181c.5758 0 1.1284.09913 1.6418.28124 2.4683.87571 4.7391 2.99149 7.3582 2.99149 2.6191 0 4.8899-2.11578 7.3583-2.99149C29.9625.09913 30.5151 0 31.0909 0 33.8021 0 36 2.19787 36 4.90909s-2.1979 4.90909-4.9091 4.90909c-.5758 0-1.1284-.09912-1.6417-.28124-2.4684-.87571-4.7392-2.99149-7.3583-2.99149-2.6191 0-4.8899 2.11578-7.3582 2.99149-.5134.18212-1.066.28124-1.6418.28124H4.90909C2.19787 9.81818 0 7.62031 0 4.90909zM.00002 18c0-2.7112 2.19787-4.9091 4.90909-4.9091.72049 0 1.40473.1552 2.0211.434 2.16295.9784 4.19589 2.8387 6.56979 2.8387 2.374 0 4.4069-1.8603 6.5698-2.8387.6164-.2788 1.3006-.434 2.0211-.434C24.8021 13.0909 27 15.2888 27 18c0 2.7112-2.1979 4.9091-4.9091 4.9091-.7205 0-1.4047-.1552-2.0211-.434-2.1629-.9784-4.1958-2.8387-6.5698-2.8387-2.3739 0-4.40684 1.8603-6.56979 2.8387-.61637.2788-1.30061.434-2.0211.434C2.19789 22.9091.00002 20.7112.00002 18zm4.90909 8.1818c-2.71122 0-4.90909 2.1979-4.90909 4.9091C.00002 33.8021 2.19789 36 4.90911 36s4.90909-2.1979 4.90909-4.9091c0-2.7112-2.19787-4.9091-4.90909-4.9091z" clip-rule="evenodd"/></svg>