
        <svg xmlns="http://www.w3.org/2000/svg" xmlns:xlink="http://www.w3.org/1999/xlink" version="1.1" width="3171.4285714285716" height="2897.1428571428573" viewBox="0 0 3171.4285714285716 2897.1428571428573">
			
			<g transform="scale(8.571428571428571) translate(10, 10)">
				<defs id="SvgjsDefs19570"/><g id="SvgjsG19571" featureKey="rootContainer" transform="matrix(1,0,0,1,0,0)" fill="#000"><rect y="0" height="1" width="1" opacity="0"/><rect y="313" width="350" height="5"/></g><g id="SvgjsG19572" featureKey="9id2mP-0" transform="matrix(4.069767951965332,0,0,4.069767951965332,-28.488392672586247,-128.5116539022142)" fill="#000"><g xmlns="http://www.w3.org/2000/svg" transform="translate(0,-952.36218)"><path style="color:;enable-background:accumulate;" d="m 7.000009,1016.3622 16,-1 c 0,-3.0491 2,-8 2,-8 0,0 2.5409,0 5,0 2,-4 5,-12.00002 7,-12.00002 0,0 1,-4 3,-4 2.6314,0 16.99998,9.00002 16.99998,9.00002 l -10.99998,16 c 0,0 5.41738,-2.8351 10.99998,-4 1.988,-0.4148 -0.2344,-4.7065 2,-5 1.929,-0.2534 4,-1 5,-1 1,0 2.0324,-13.24872 4,-11.00002 7,8.00002 21.4047,17.28082 25.000002,21.00002 l -12.000002,-17.00002 -3,4.00002 -9,-13.00002 -11,7 -10.99998,-8 -3,2 -5,-3 -4,6 -5,-2 -12,16.00002 -3.3749,-0.6251 -7.6251,8.6251" stroke="none" marker="none" visibility="visible" display="inline" overflow="visible"/></g></g><g id="SvgjsG19573" featureKey="zfl5BF-0" transform="matrix(5.384615421295166,0,0,5.384615421295166,-5.3846115332383375,121.3076933347262)" fill="#000"><path d="M3.6 9.5 l0 7 c0 0.7 0.6 1.3 1.4 1.3 l3.7 0 l0 -5.5 l2.6 0 l0 7.7 l-7 0 c-2 0 -3.3 -1.3 -3.3 -3.1 l0 -7.8 c0 -1.8 1.3 -3.1 3.3 -3.1 l6.5 0 l0 1.5 l-0.7 0.7 l-5.1 0 c-0.8 0 -1.4 0.6 -1.4 1.3 z M22.4 12.3 l0 3.6 l-6.5 0 l0 1 c0 0.6 0.4 1 1.1 1 l5 0 l0 2.1 l-5.7 0 c-1.7 0 -2.9 -1.2 -2.9 -2.7 l0 -5 c0 -1.5 1.2 -2.7 2.9 -2.7 l3.2 0 c1.7 0 2.9 1.2 2.9 2.7 z M15.9 12.7 l0 1.1 l4 0 l0 -1.1 c0 -0.6 -0.4 -1 -1.1 -1 l-1.8 0 c-0.7 0 -1.1 0.4 -1.1 1 z M23.7 11.9 l0 -2.1 l1.5 0 l1 -2.9 l1.5 0 l0 2.9 l2.5 0 l0 2.1 l-2.5 0 l0 5 c0 0.6 0.4 1 1.1 1 l2 0 l0 2.1 l-2.7 0 c-1.7 0 -2.9 -1.2 -2.9 -2.7 l0 -5.4 l-1.5 0 z M31.6 11.9 l0 -2.1 l1.5 0 l1 -2.9 l1.5 0 l0 2.9 l2.5 0 l0 2.1 l-2.5 0 l0 5 c0 0.6 0.4 1 1.1 1 l2 0 l0 2.1 l-2.7 0 c-1.7 0 -2.9 -1.2 -2.9 -2.7 l0 -5.4 l-1.5 0 z M42.800000000000004 9.8 l0 10.2 l-2.5 0 l0 -10.2 l2.5 0 z M42.800000000000004 5.699999999999999 l0 2.8 l-2.5 0 l0 -2.8 l2.5 0 z M47.7 20 l-2.5 0 l0 -10.2 l1.7 0 l0.3 1.2 l0.2 0 s0.8 -1.4 2.3 -1.4 l1.8 0 c1.7 0 2.9 1.2 2.9 2.7 l0 7.7 l-2.5 0 l0 -7.3 c0 -0.6 -0.4 -1 -1.1 -1 l-1.5 0 c-1.1 0 -1.6 1.1 -1.6 1.1 l0 7.2 z M63.7 9.9 l0 0.2 s1.6 0.5 1.6 2.2 l0 1.1 c0 1.5 -1.2 2.7 -2.9 2.7 l-2.96 0 c-0.26 0.02 -0.34 0.22 -0.34 0.4 l0 0.2 c0 0.2 0.16 0.38 0.36 0.4 l3.44 0 c1.7 0 3.1 1.4 3.1 2.9 l0 0.6 c0 1.5 -1.4 2.9 -3.1 2.9 l-4 0 c-1.7 0 -3.1 -1.4 -3.1 -2.9 l0 -0.6 c0 -1.7 1.6 -2.4 1.6 -2.4 l0 -0.2 s-0.5 -0.2 -0.5 -0.8 l0 -0.28 c0 -0.6 0.5 -0.82 0.5 -0.82 l0 -0.2 s-0.9 -0.6 -0.9 -1.9 l0 -1.1 c0 -1.5 1.2 -2.7 2.9 -2.7 l2.3 0 l1.1 -1.8 l2.1 0 l0 1 z M63.5 20.3 c0 -0.7 -0.4 -1.1 -1.1 -1.1 l-3 0 c-0.7 0 -1.1 0.4 -1.1 1.1 s0.4 1.1 1.1 1.1 l3 0 c0.7 0 1.1 -0.4 1.1 -1.1 z M62.800000000000004 12.8 c0 -0.7 -0.4 -1.1 -1.1 -1.1 l-1.6 0 c-0.7 0 -1.1 0.4 -1.1 1.1 l0 0.1 c0 0.7 0.4 1.1 1.1 1.1 l1.6 0 c0.7 0 1.1 -0.4 1.1 -1.1 l0 -0.1 z"/></g><g id="SvgjsG19574" featureKey="zfl5BF-1" transform="matrix(3.0146424770355225,0,0,3.0146424770355225,-0.9043962267287856,239.91214446511734)" fill="#000"><path d="M8 6 l4.3 12.9 l0 1.1 l-2.6 0 l-0.9 -3 l-5 0 l-0.9 3 l-2.6 0 l0 -1.1 l4.3 -12.9 l3.4 0 z M6.2 8.8 l-1.8 6 l3.8 0 l-1.8 -6 l-0.2 0 z M24.299999999999997 12.5 c0 1.8 -1.3 3.1 -3.3 3.1 l-4.4 0 l0 4.4 l-2.6 0 l0 -14 l7 0 c2 0 3.3 1.3 3.3 3.1 l0 3.4 z M16.6 8.2 l0 5.2 l3.7 0 c0.8 0 1.4 -0.6 1.4 -1.3 l0 -2.6 c0 -0.7 -0.6 -1.3 -1.4 -1.3 l-3.7 0 z M29.1 20 l-2.6 0 l0 -14 l2.6 0 l0 14 z M37.1 17 c0 -0.5 -0.3 -0.82 -0.8 -0.9 l-2.8 -0.5 c-1.2 -0.2 -2.3 -1.3 -2.3 -2.7 l0 -0.4 c0 -1.5 1.2 -2.7 2.9 -2.7 l5.1 0 l0 1.5 l-0.6 0.6 l-3.9 0 c-0.6 0 -1 0.4 -1 0.8 c0 0.58 0.2 0.9 0.8 1 l2.9 0.5 c1.2 0.2 2.2 1.2 2.2 2.6 l0 0.5 c0 1.5 -1.2 2.7 -2.9 2.7 l-5.6 0 l0 -2.1 l5.1 0 c0.6 0 0.9 -0.3 0.9 -0.9 z M45.6 11.9 l0 -2.1 l1.5 0 l1 -2.9 l1.5 0 l0 2.9 l2.5 0 l0 2.1 l-2.5 0 l0 5 c0 0.6 0.4 1 1.1 1 l2 0 l0 2.1 l-2.7 0 c-1.7 0 -2.9 -1.2 -2.9 -2.7 l0 -5.4 l-1.5 0 z M53.9 12.3 c0 -1.5 1.2 -2.7 2.9 -2.7 l3.4 0 c1.7 0 2.9 1.2 2.9 2.7 l0 5.2 c0 1.5 -1.2 2.7 -2.9 2.7 l-3.4 0 c-1.7 0 -2.9 -1.2 -2.9 -2.7 l0 -5.2 z M60.6 17.1 l0 -4.4 c0 -0.6 -0.4 -1 -1.1 -1 l-2 0 c-0.7 0 -1.1 0.4 -1.1 1 l0 4.4 c0 0.6 0.4 1 1.1 1 l2 0 c0.7 0 1.1 -0.4 1.1 -1 z M79.6 8.2 l2.4 8.3 l0.2 0 l1.9 -10.5 l2.9 0 l0 1.1 l-3.1 12.9 l-3.2 0 l-2.5 -8.5 l-0.2 0 l-2.5 8.5 l-3.2 0 l-3.1 -12.9 l0 -1.1 l2.9 0 l1.9 10.5 l0.2 0 l2.4 -8.3 l3 0 z M88.10000000000001 12.3 c0 -1.5 1.2 -2.7 2.9 -2.7 l3.4 0 c1.7 0 2.9 1.2 2.9 2.7 l0 5.2 c0 1.5 -1.2 2.7 -2.9 2.7 l-3.4 0 c-1.7 0 -2.9 -1.2 -2.9 -2.7 l0 -5.2 z M94.8 17.1 l0 -4.4 c0 -0.6 -0.4 -1 -1.1 -1 l-2 0 c-0.7 0 -1.1 0.4 -1.1 1 l0 4.4 c0 0.6 0.4 1 1.1 1 l2 0 c0.7 0 1.1 -0.4 1.1 -1 z M105.8 9.6 l0 2.2 l-2.3 0 c-1.1 0 -1.6 1 -1.6 1 l0 7.2 l-2.5 0 l0 -10.2 l1.7 0 l0.3 1.2 l0.2 0 s0.8 -1.4 2.3 -1.4 l1.9 0 z M111.8 13.7 l1.9 -3.9 l2.5 0 l0 1 l-2.3 3.9 l2.5 4.3 l0 1 l-2.5 0 l-2.1 -4.2 l-1.9 0 l0 4.2 l-2.5 0 l0 -14 l2.5 0 l0 7.7 l1.9 0 z"/></g>
			</g>
		</svg>
	