<svg xmlns="http://www.w3.org/2000/svg" role="img" viewBox="-13.81 -13.81 718.12 197.12"><path fill="#e9e9e9" d="M0 85V0h691v170H0zm565.21 49.446c5.7588-1.9622 12.211-7.4409 15.079-12.803 2.0224-3.7815 2.2155-5.537 2.2155-20.143 0-14.489-.20379-16.378-2.1584-20-2.292-4.2476-5.9385-7.9503-10.83-10.997-4.2701-2.6597-17.04-3.3155-21.333-1.0954-3.8088 1.9696-3.6583 2.9393-2.0323-13.099l1.1465-11.309h31.669l.60193-2.3983c.33106-1.3191.45213-3.4566.26905-4.75l-.33288-2.3517-21.176-.26967c-19.532-.24874-21.216-.1323-21.686 1.5-.93345 3.2413-3.8932 43.161-3.3123 44.675.31445.81944 2.4204 1.9877 4.6799 2.5961 3.8765 1.0438 4.3012.93681 7.5301-1.8983 5.9152-5.1936 14.645-5.3464 20.571-.36004 4.8398 4.0724 5.8935 7.7358 5.8935 20.49 0 12.868-1.2882 16.605-7.1016 20.604-2.896 1.992-4.3406 2.2795-9.7717 1.9448-5.979-.36855-6.6131-.64995-10.25-4.5489-2.563-2.7476-3.8819-5.1011-3.892-6.9448-.025-4.5507-1.1761-5.4427-6.5814-5.0998l-4.9032.31105.32343 4.5c.65996 9.1824 9.1206 19.181 18.541 21.911 4.9134 1.424 11.859 1.2321 16.841-.46522zm63.324-1.2252c4.637-2.3885 9.4765-7.2727 12.109-12.22 1.6785-3.1552 1.8919-6.5371 2.1657-34.33.34145-34.654-.003-37.038-6.4378-44.555-4.1664-4.8676-7.3794-6.7096-14.288-8.1911-11.336-2.4312-22.101 2.8589-27.568 13.548l-3.0104 5.8856v30.571c0 33.078.20021 34.597 5.5316 41.956 5.2046 7.1848 12.192 10.359 21.498 9.7653 3.4149-.21782 7.7512-1.2714 10-2.4298zm-19.231-10.18c-6.5951-4.0213-6.7986-5.1745-6.7986-38.54 0-28.227.1182-30.196 2-33.319 6.1004-10.124 20.729-9.4996 25.536 1.0897 1.7463 3.847 1.9219 6.7861 1.9419 32.511.0242 31.119-.22952 32.727-5.9188 37.515-4.0654 3.4208-11.807 3.7644-16.761.74379zm-88.484 11.095c.84969-.53882 1.2035-2.3908 1-5.2347l-.31487-4.4009-42.715-.5404.69099-3.6833c1.5813-8.4292 3.7519-11.078 27.682-33.776 11.229-10.651 14.094-15.687 14.679-25.802.48332-8.3471-1.3596-13.734-6.5141-19.041-4.4571-4.5888-7.6402-6.3168-14.245-7.7333-13.229-2.8371-27.257 5.9248-30.693 19.171-1.7514 6.7519-1.1322 7.9057 4.2428 7.9057 3.8923 0 4.5398-.3253 5.4739-2.75 3.9505-10.254 8.3834-14.252 15.796-14.246 8.1067.0066 15.09 6.4266 15.098 13.88.01 8.9591-4.8147 16.082-19.418 28.666-17.611 15.177-22.523 23.081-23.35 37.57-.40526 7.1075-.21462 9.2747.87663 9.9657 1.772 1.122 49.945 1.1679 51.709.0492z"/><path fill="#b5c3d7" d="M0 85V0h691v170H0zm568.5 48.246c5.2546-2.7198 9.904-7.6778 12.421-13.246 1.716-3.7952 2.0381-6.5962 2.0566-17.884.0123-7.5168-.49918-15.123-1.1668-17.352-1.5945-5.3219-8.7853-13.132-14.053-15.264-5.5387-2.2412-15.323-2.3629-19.571-.24344l-3.2593 1.6259.68656-7.6915c.37761-4.2303.9565-9.9415 1.2864-12.692l.59984-5 32-1v-9h-43l-1.7513 19c-.96322 10.45-1.6382 21.025-1.5 23.5.24041 4.3051.43066 4.562 4.3915 5.9313 4.004 1.3842 4.2439 1.344 7.2951-1.2234 6.7961-5.7186 15.442-5.9497 21.562-.57637 4.3904 3.8548 5.4904 7.9173 5.4973 20.303.005 8.0118-.39519 10.762-2.0654 14.212-2.6916 5.56-7.2256 8.3545-13.547 8.3497-8.1091-.006-14.042-4.9694-15.317-12.813-.7073-4.3514-4.288-6.2105-8.8148-4.5766-2.51.90598-2.7247 1.3811-2.4602 5.443.59184 9.0901 7.542 18.05 16.596 21.394 5.7114 2.1095 16.896 1.5038 22.115-1.1976zm59.608.4097c5.2664-2.5519 9.8756-7.4385 12.601-13.359 2.391-5.194 2.395-5.2644 2.0934-37-.28881-30.388-.39798-31.973-2.4646-35.796-6.255-11.571-18.282-16.693-30.712-13.08-6.8723 1.9978-12.588 6.8377-15.817 13.393-2.2655 4.5993-2.3084 5.2813-2.3084 36.686 0 35.385.0111 35.457 6.6176 42.981 5.1456 5.8605 11.937 8.6835 19.882 8.2649 3.575-.18838 8.1234-1.1292 10.108-2.0906zm-18.503-10.577c-1.5922-1.0497-3.8422-3.4043-5-5.2325-2.0174-3.1856-2.105-4.5526-2.105-32.835 0-27.968.10737-29.694 2.0541-33.007 3.239-5.5138 8.0453-8.2654 13.544-7.7539 5.6913.52942 9.2696 3.0328 11.888 8.3162 1.8761 3.7863 2.013 5.9856 1.9926 32-.02 25.382-.19736 28.321-1.9419 32.164-1.1085 2.4419-3.318 5.0817-5.228 6.2463-4.2841 2.612-11.325 2.6595-15.203.10272zm-512.81 10.722c1.2809-1.2809 1.5934-5.6113.59301-8.2182-.52305-1.363-3.1505-1.5818-19-1.5818h-18.393v-89h-11v49.417c0 38.598.27367 49.527 1.25 49.921.6875.27741 11.172.53991 23.3.58333 15.909.057 22.384-.25526 23.25-1.121zm64.015.33558c.84969-.53882 1.2035-2.3908 1-5.2347l-.31487-4.4009-37.5-.54413v-36.956h33v-10h-33v-31.955l36.5-.54512v-9h-48l-.25969 48.386c-.18729 34.896.0559 48.766.87245 49.75.8959 1.0795 5.8535 1.3609 23.76 1.3488 12.445-.008 23.219-.39052 23.942-.84911zm51.444-.38558c.97909-.7458 4.8881-12.19 9.6911-28.372l8.0501-27.122v-43.361l-10.5.60452-1 43-6.8998 22.75c-5.3265 17.563-7.2722 22.75-8.5329 22.75-1.2641 0-3.207-5.2524-8.6002-23.25l-6.9671-23.25-.61022-42.5h-10.8898l.0296 43.5 8.3577 27.362c4.5967 15.049 8.9776 27.755 9.7352 28.235 2.1422 1.3568 16.254 1.0869 18.136-.34691zm81.556.38558c.84969-.53882 1.2035-2.3908 1-5.2347l-.31487-4.4009-37.5-.54413v-36.956h33v-10h-33v-31.955l36.5-.54512v-9h-48l-.25969 48.386c-.18729 34.896.0559 48.766.87245 49.75.8959 1.0795 5.8535 1.3609 23.76 1.3488 12.445-.008 23.219-.39052 23.942-.84911zm67.985-.33558c1.2809-1.2809 1.5934-5.6113.59301-8.2182-.52305-1.363-3.1505-1.5818-19-1.5818h-18.393v-89h-11v49.417c0 38.598.27367 49.527 1.25 49.921.6875.27741 11.172.53991 23.3.58333 15.909.057 22.384-.25526 23.25-1.121zm160.4-1.3403c.78554-1.7241.85146-3.4109.20516-5.25l-.95227-2.7097-42.603-.54021.66231-3.2299c1.4257-6.9525 4.9677-12.329 13.327-20.23 27.061-25.576 29.133-28.475 29.151-40.782.0157-10.927-4.0745-18.269-12.834-23.036-2.7964-1.522-7.2753-3.0267-9.9532-3.3439-13.959-1.6532-28.581 9.6848-29.424 22.816l-.27902 4.3467 10.396.6009 1.121-4.163c.61653-2.2896 2.8069-5.9704 4.8676-8.1795 3.1966-3.4269 4.471-4.0791 8.6812-4.4428 9.0462-.78154 16.435 5.5735 16.435 14.136 0 7.112-4.1168 13.598-14.798 23.312-17.184 15.63-20.728 19.527-24.237 26.654-2.8713 5.8324-3.4242 8.139-3.7912 15.817-.33029 6.9082-.11087 9.1909.94791 9.8615.75773.47994 12.75.87951 26.649.88793l25.271.01531z"/><path fill="#56e7d8" d="M0 85V0h691v170H0zm567.5 48.634c5.5197-2.5905 9.354-6.0552 12.757-11.527 2.0944-3.3678 2.2429-4.7315 2.2429-20.607 0-18.748-.37116-20.217-6.7096-26.556-6.4649-6.4649-17.75-9.3474-25.751-6.5773-2.4535.84947-4.5595 1.4459-4.68 1.3255-.12046-.12047.31196-5.613.96096-12.206l1.18-11.987 32-1 .31453-3.8198c.54325-6.5976.2735-6.6802-21.815-6.6802-14.599 0-20.018.32624-20.764 1.25-1.0127 1.2546-4.2635 34.144-4.2454 42.953.009 4.5801.10762 4.7302 3.7596 5.7444 5.3487 1.4854 6.2503 1.3443 8.7677-1.372 3.3982-3.6667 9.5036-5.1852 14.649-3.6434 9.2417 2.7689 12.268 9.4545 11.664 25.771-.31006 8.376-.75027 10.716-2.4463 13.006-5.1717 6.9804-13.168 9.1557-20.364 5.54-4.1391-2.0796-8.0199-7.4975-8.0199-11.196 0-3.604-1.7198-5.0521-6-5.0521-6.4014 0-7.4225 3.123-4.0064 12.253 1.991 5.3215 7.2011 11.324 11.948 13.766 7.2495 3.7292 17.382 3.9826 24.558.61436zm61.234.01c4.0736-2.1145 9.6942-7.6935 11.998-11.91 1.5904-2.9103 1.7675-6.5898 1.7675-36.734 0-30.229-.17542-33.852-1.7964-37.108-2.664-5.35-7.5313-9.8962-13.572-12.676-9.777-4.5-21.744-1.8148-29.329 6.5809-6.0723 6.7213-6.3025 8.2811-6.3025 42.703 0 27.596.20005 31.518 1.8221 35.722 2.0779 5.3853 10.055 13.209 15.035 14.746 4.6001 1.4197 16.592.64021 20.377-1.3246zM612 124.2939c-.825-.30158-2.5553-1.5036-3.845-2.671-5.0272-4.5506-5.1552-5.4784-5.1512-37.323.004-27.972.12564-30 1.9909-33.059 5.7738-9.4697 17.365-9.4306 24.413.08247 2.014 2.7181 2.092 3.9476 2.092 33 0 28.404-.11751 30.372-2 33.496-3.5381 5.8716-11.297 8.7423-17.5 6.4747zm-514.5 5.2062v-5l-37-1-.26066-43.948c-.19948-33.632-.55156-44.132-1.5-44.735-2.112-1.3413-7.5173-.89698-9.1679.75368-1.384 1.384-1.5714 7.177-1.5714 48.566 0 30.761.36091 47.669 1.0448 48.947.99761 1.8641 2.1157 1.9402 24.75 1.6843l23.705-.26799zm64 0v-5l-37.5-.54413v-36.956h32.962l.6627-2.6404c.36449-1.4522.2502-3.8147-.25397-5.25l-.91667-2.6096-32.454-.54954v-30.905l36.5-.54512.31487-4.4009c.20348-2.8439-.15031-4.6959-1-5.2347-2.177-1.3805-45.209-1.0707-46.615.33558-1.744 1.744-1.727 96.873.0176 98.618.90355.90355 7.2868 1.1486 24.75.95l23.532-.26759zm51.866 3.25c.77659-1.2375 5.062-14.551 9.5231-29.586l8.1111-27.336v-19.714c0-13.999-.34783-20.061-1.2-20.914-.66-.66-2.6482-1.2-4.4182-1.2-6.6245 0-6.3818-.81528-6.3818 21.44v20.226l-7.0142 23.381c-3.8578 12.86-7.4578 23.825-8 24.367-.62149.62149-1.3069.63472-1.8548.0358-.47795-.5225-3.9521-11.075-7.7203-23.45l-6.8513-22.5-.35473-20.987c-.24745-14.64-.7101-21.213-1.5297-21.735-1.427-.90764-5.9258-1.0027-8.0932-.17098-1.3753.52774-1.5818 3.4459-1.5818 22.353v21.746l8.086 26.897c4.4473 14.794 8.5524 27.46 9.1224 28.147.68643.82785 4.0268 1.25 9.891 1.25 8.0974 0 8.9752-.19238 10.266-2.25zm81.134-3.25v-5l-37.5-.54413v-36.956h32.962l.6627-2.6404c.36449-1.4522.2502-3.8147-.25397-5.25l-.91667-2.6096-32.454-.54954v-30.905l36.5-.54512.31487-4.4009c.20348-2.8439-.15031-4.6959-1-5.2347-2.177-1.3805-45.209-1.0707-46.615.33558-1.744 1.744-1.727 96.873.0176 98.618.90355.90355 7.2868 1.1486 24.75.95l23.532-.26759zm68 0v-5l-37-1-.26066-43.948c-.19947-33.632-.55155-44.132-1.5-44.735-2.112-1.3413-7.5172-.89698-9.1679.75368-1.384 1.384-1.5714 7.177-1.5714 48.566 0 30.761.36091 47.669 1.0448 48.947.99762 1.8641 2.1157 1.9402 24.75 1.6843l23.705-.26799zm159.3 4.3c1.2809-1.2809 1.5934-5.6113.59301-8.2182-.52669-1.3726-3.3708-1.5818-21.5-1.5818h-20.893v-2.9349c0-7.3588 6.063-15.499 20.63-27.698 17.919-15.006 23.711-25.725 21.211-39.259-3.8413-20.803-29.592-28.204-44.893-12.903-4.0683 4.0683-8.1904 12.843-7.7662 16.532.29614 2.5756.6691 2.7827 5.5155 3.0629l5.1979.30045 1.0784-4.005c1.2805-4.7555 5.0905-9.5609 9.3107-11.743 6.771-3.5014 17.319.8871 19.736 8.2112 2.8597 8.6651-1.4433 17.251-14.395 28.722-13.918 12.327-20.019 18.979-23.583 25.714-2.9808 5.6318-3.4968 7.664-3.8623 15.214-.23207 4.793-.15679 9.4055.16729 10.25.50879 1.3259 4.1163 1.5355 26.421 1.5355 18.758 0 26.16-.32861 27.031-1.2z"/><path fill="#96adcc" d="M0 85V0h386v170H0zm97.5 44.5v-5l-37-1-.26066-43.948c-.19948-33.632-.55156-44.132-1.5-44.735-2.112-1.3413-7.5173-.89698-9.1679.75368-1.384 1.384-1.5714 7.177-1.5714 48.566 0 30.761.36091 47.669 1.0448 48.947.99761 1.8641 2.1157 1.9402 24.75 1.6843l23.705-.26799zm64 0v-5l-37.5-.54413v-36.956h32.962l.6627-2.6404c.36449-1.4522.2502-3.8147-.25397-5.25l-.91667-2.6096-32.454-.54954v-30.905l36.5-.54512.31487-4.4009c.20348-2.8439-.15031-4.6959-1-5.2347-2.177-1.3805-45.209-1.0707-46.615.33558-1.744 1.744-1.727 96.873.0176 98.618.90355.90355 7.2868 1.1486 24.75.95l23.532-.26759zm51.866 3.25c.77659-1.2375 5.062-14.551 9.5231-29.586l8.1111-27.336V56.114c0-13.999-.34783-20.061-1.2-20.914-.66-.66-2.6482-1.2-4.4182-1.2-6.6245 0-6.3818-.81528-6.3818 21.44v20.226l-7.0142 23.381c-3.8578 12.86-7.4578 23.825-8 24.367-.62149.62149-1.3069.63472-1.8548.0358-.47795-.5225-3.9521-11.075-7.7203-23.45l-6.8513-22.5-.35473-20.987c-.24745-14.64-.7101-21.213-1.5297-21.735-1.427-.90764-5.9258-1.0027-8.0932-.17098-1.3753.52774-1.5818 3.4459-1.5818 22.353v21.746l8.086 26.897c4.4473 14.794 8.5524 27.46 9.1224 28.147.68643.82785 4.0268 1.25 9.891 1.25 8.0974 0 8.9752-.19238 10.266-2.25zm81.134-3.25v-5l-37.5-.54413v-36.956h32.962l.6627-2.6404c.36449-1.4522.2502-3.8147-.25397-5.25l-.91667-2.6096-32.454-.54954v-30.905l36.5-.54512.31487-4.4009c.20348-2.8439-.15031-4.6959-1-5.2347-2.177-1.3805-45.209-1.0707-46.615.33558-1.744 1.744-1.727 96.873.0176 98.618.90355.90355 7.2868 1.1486 24.75.95l23.532-.26759zm68 0v-5l-37-1-.26066-43.948c-.19947-33.632-.55155-44.132-1.5-44.735-2.112-1.3413-7.5172-.89698-9.1679.75368-1.384 1.384-1.5714 7.177-1.5714 48.566 0 30.761.36091 47.669 1.0448 48.947.99762 1.8641 2.1157 1.9402 24.75 1.6843l23.705-.26799zm73.5 16.738v-23.762L420.5 107C408.958 95.476 405 90.901 405 89.083c0-1.8123 3.9946-6.4644 15.5-18.051l15.5-15.61V0h255v170H436zm131.5-12.604c5.5197-2.5905 9.354-6.0552 12.757-11.527 2.0944-3.3678 2.2429-4.7315 2.2429-20.607 0-18.748-.37116-20.217-6.7096-26.556-6.4649-6.4649-17.75-9.3474-25.751-6.5773-2.4535.84947-4.5595 1.4459-4.68 1.3255-.12046-.12047.31196-5.613.96096-12.206l1.18-11.987 32-1 .31453-3.8198c.54325-6.5976.2735-6.6802-21.815-6.6802-14.599 0-20.018.32624-20.764 1.25-1.0127 1.2546-4.2635 34.144-4.2454 42.953.009 4.5801.10762 4.7302 3.7596 5.7444 5.3487 1.4854 6.2503 1.3443 8.7677-1.372 3.3982-3.6667 9.5036-5.1852 14.649-3.6434 9.2417 2.7689 12.268 9.4545 11.664 25.771-.31006 8.376-.75027 10.716-2.4463 13.006-5.1717 6.9804-13.168 9.1557-20.364 5.54-4.1391-2.0796-8.0199-7.4975-8.0199-11.196 0-3.604-1.7198-5.0521-6-5.0521-6.4014 0-7.4225 3.123-4.0064 12.253 1.991 5.3215 7.2011 11.324 11.948 13.766 7.2495 3.7292 17.382 3.9826 24.558.61436zm61.234.01c4.0736-2.1145 9.6942-7.6935 11.998-11.91 1.5904-2.9103 1.7675-6.5898 1.7675-36.734 0-30.229-.17542-33.852-1.7964-37.108-2.664-5.35-7.5313-9.8962-13.572-12.676-9.777-4.5-21.744-1.8148-29.329 6.5809-6.0723 6.7213-6.3025 8.2811-6.3025 42.703 0 27.596.20005 31.518 1.8221 35.722 2.0779 5.3853 10.055 13.209 15.035 14.746 4.6001 1.4197 16.592.64021 20.377-1.3246zM612 124.2939c-.825-.30158-2.5553-1.5036-3.845-2.671-5.0272-4.5506-5.1552-5.4784-5.1512-37.323.004-27.972.12564-30 1.9909-33.059 5.7738-9.4697 17.365-9.4306 24.413.08247 2.014 2.7181 2.092 3.9476 2.092 33 0 28.404-.11751 30.372-2 33.496-3.5381 5.8716-11.297 8.7423-17.5 6.4747zm-90.2 9.5062c1.2809-1.2809 1.5934-5.6113.59301-8.2182-.52669-1.3726-3.3708-1.5818-21.5-1.5818h-20.893v-2.9349c0-7.3588 6.063-15.499 20.63-27.698 17.919-15.006 23.711-25.725 21.211-39.259-3.8413-20.803-29.592-28.204-44.893-12.903-4.0683 4.0683-8.1904 12.843-7.7662 16.532.29614 2.5756.6691 2.7827 5.5155 3.0629l5.1979.30045 1.0784-4.005c1.2805-4.7555 5.0905-9.5609 9.3107-11.743 6.771-3.5014 17.319.8871 19.736 8.2112 2.8597 8.6651-1.4433 17.251-14.395 28.722-13.918 12.327-20.019 18.979-23.583 25.714-2.9808 5.6318-3.4968 7.664-3.8623 15.214-.23207 4.793-.15679 9.4055.16729 10.25.50879 1.3259 4.1163 1.5355 26.421 1.5355 18.758 0 26.16-.32861 27.031-1.2z"/><path fill="#999" d="M0 85V0h386v170H0zm97.811 45.176c.50891-7.073.22966-7.1761-19.434-7.1761H60.999v-43.3c0-32.344-.30362-43.604-1.2-44.5-1.5543-1.5543-9.0457-1.5543-10.6 0-.8998.8998-1.2 13.137-1.2 48.918 0 26.245.27617 48.438.61371 49.318.54301 1.4151 3.3944 1.5685 24.75 1.3318l24.136-.26752zm63.989 3.6239c1.7116-1.7116 1.4838-7.3734-.37143-9.2286-1.3117-1.3117-4.5346-1.5714-19.5-1.5714h-17.929v-35h15.8c10.956 0 16.168-.36793 17-1.2.66-.66 1.2-2.82 1.2-4.8s-.54-4.14-1.2-4.8c-.83207-.83207-6.0444-1.2-17-1.2h-15.8v-29.955l36.5-.54512v-11h-48l-.26031 49c-.14317 26.95-.0448 49.562.21861 50.25.67375 1.7585 47.586 1.806 49.342.05zm52.236-1.05c.54627-1.2375 4.5866-14.323 8.9786-29.078l7.9853-26.828v-41.805l-2.3616-.59273c-1.2989-.326-3.8864-.44708-5.75-.26905l-3.3884.32368-1.0211 42-6.9883 23.275c-5.2213 17.39-7.3555 23.205-8.4404 22.996-.96241-.18534-3.7233-7.8658-8.187-22.775l-6.7349-22.496-.06409-20.55c-.04545-14.574-.41303-20.899-1.2641-21.75-1.5543-1.5543-9.0457-1.5543-10.6 0-.85408.85408-1.2 7.0194-1.2 21.387v20.187l7.4965 24.863c4.123 13.675 8.2103 26.775 9.0827 29.113l1.5863 4.25h9.9387c9.3459 0 9.998-.13421 10.932-2.25zm80.764 1.05c1.7116-1.7116 1.4838-7.3734-.37143-9.2286-1.3117-1.3117-4.5346-1.5714-19.5-1.5714h-17.929v-35h15.8c10.956 0 16.168-.36793 17-1.2.66-.66 1.2-2.82 1.2-4.8s-.54-4.14-1.2-4.8c-.83207-.83207-6.0444-1.2-17-1.2h-15.8v-29.955l36.5-.54512v-11h-48l-.26031 49c-.14317 26.95-.0448 49.562.21861 50.25.67375 1.7585 47.586 1.806 49.342.05zm68.011-3.6239c.50891-7.073.22966-7.1761-19.434-7.1761h-17.378v-43.3c0-32.344-.30362-43.604-1.2-44.5-1.5543-1.5543-9.0457-1.5543-10.6 0-.8998.8998-1.2 13.137-1.2 48.918 0 26.245.27617 48.438.61371 49.318.54301 1.4151 3.3944 1.5685 24.75 1.3318l24.136-.26752zM436 146.238v-23.762L420.5 107C408.958 95.476 405 90.901 405 89.083c0-1.8123 3.9946-6.4644 15.5-18.051l15.5-15.61V0h255v170H436zm131.5-12.596c5.3824-2.5175 10.666-7.3278 13.336-12.142 2.4864-4.4827 2.4424-35.578-.0568-40.144-5.8632-10.712-20.029-16.698-30.74-12.989-2.4535.84947-4.5595 1.4459-4.68 1.3255-.12046-.12047.31196-5.613.96096-12.206l1.18-11.987 32-1 .31453-3.8198c.54325-6.5976.2735-6.6802-21.815-6.6802-14.587 0-20.025.32698-20.786 1.25-1.0292 1.2476-4.2138 33.592-4.2138 42.797 0 4.7628.0741 4.8794 3.75 5.9002 5.3697 1.4912 6.4675 1.3159 9.0932-1.4525 7.7375-8.1579 22.106-3.826 25.18 7.5915.69557 2.5832 1.0292 8.6234.80737 14.616-.31006 8.376-.75027 10.716-2.4463 13.006-5.1717 6.9804-13.168 9.1557-20.364 5.54-4.1391-2.0796-8.0199-7.4975-8.0199-11.196 0-3.6202-1.7225-5.0521-6.0776-5.0521-4.8672 0-6.352 1.9123-5.5208 7.1104 1.551 9.6995 8.9297 18.016 18.592 20.955 5.3925 1.6403 14.354.98621 19.506-1.4238zm62.797-.96983c5.2327-3.0666 10.31-9.4995 11.766-14.907.61927-2.2998.90383-16.006.72711-35.022-.32316-34.774-.35954-34.979-7.457-42.077-9.8918-9.8918-25.157-10.224-35.647-.7753-7.7796 7.0069-8.1437 8.778-8.5049 41.369-.34612 31.232.24441 36.959 4.4708 43.356 5.5425 8.3892 12.219 11.6 22.992 11.057 5.4802-.27605 8.1944-.97528 11.652-3.0018zM612 124.29397c-.825-.30158-2.5553-1.5036-3.845-2.671-5.0272-4.5506-5.1552-5.4784-5.1512-37.323.004-27.972.12564-30 1.9909-33.059 5.7736-9.4695 17.364-9.4306 24.413.08191 2.014 2.7176 2.092 3.9469 2.092 33 0 28.404-.11751 30.372-2 33.496-3.5381 5.8716-11.297 8.7423-17.5 6.4747zm-90.2 9.5062c1.2809-1.2809 1.5934-5.6113.59301-8.2182-.52669-1.3726-3.3708-1.5818-21.5-1.5818h-20.893v-2.953c0-7.1053 6.5403-15.88 20.63-27.68 16.087-13.472 21.664-22.337 21.664-34.44 0-28.722-38.881-35.729-51.029-9.1958-1.3204 2.884-2.2577 6.4868-2.083 8.0061.29614 2.5756.6691 2.7827 5.5155 3.0629l5.1979.30045 1.0784-4.005c2.204-8.185 9.288-13.665 16.6-12.84 10.409 1.1733 15.756 10.474 12.026 20.919-1.9766 5.5344-6.6741 10.894-19.23 21.94-17.299 15.219-22.37 24.003-22.37 38.754 0 4.2891.3 8.0984.66667 8.465 1.2748 1.2748 51.833.76737 53.133-.53333z"/><path fill="#3567ab" d="M0 85V0h386v170H0zm97.811 45.176c.50891-7.073.22966-7.1761-19.434-7.1761H60.999v-43.3c0-32.344-.30362-43.604-1.2-44.5-1.5543-1.5543-9.0457-1.5543-10.6 0-.8998.8998-1.2 13.137-1.2 48.918 0 26.245.27617 48.438.61371 49.318.54301 1.4151 3.3944 1.5685 24.75 1.3318l24.136-.26752zm63.989 3.6239c1.7116-1.7116 1.4838-7.3734-.37143-9.2286-1.3117-1.3117-4.5346-1.5714-19.5-1.5714h-17.929v-35h15.8c10.956 0 16.168-.36793 17-1.2.66-.66 1.2-2.82 1.2-4.8s-.54-4.14-1.2-4.8c-.83207-.83207-6.0444-1.2-17-1.2h-15.8v-29.955l36.5-.54512v-11h-48l-.26031 49c-.14317 26.95-.0448 49.562.21861 50.25.67375 1.7585 47.586 1.806 49.342.05zm52.236-1.05c.54627-1.2375 4.5866-14.323 8.9786-29.078l7.9853-26.828v-41.805l-2.3616-.59273c-1.2989-.326-3.8864-.44708-5.75-.26905l-3.3884.32368-1.0211 42-6.9883 23.275c-5.2213 17.39-7.3555 23.205-8.4404 22.996-.96241-.18534-3.7233-7.8658-8.187-22.775l-6.7349-22.496-.06409-20.55c-.04545-14.574-.41303-20.899-1.2641-21.75-1.5543-1.5543-9.0457-1.5543-10.6 0-.85408.85408-1.2 7.0194-1.2 21.387v20.187l7.4965 24.863c4.123 13.675 8.2103 26.775 9.0827 29.113l1.5863 4.25h9.9387c9.3459 0 9.998-.13421 10.932-2.25zm80.764 1.05c1.7116-1.7116 1.4838-7.3734-.37143-9.2286-1.3117-1.3117-4.5346-1.5714-19.5-1.5714h-17.929v-35h15.8c10.956 0 16.168-.36793 17-1.2.66-.66 1.2-2.82 1.2-4.8s-.54-4.14-1.2-4.8c-.83207-.83207-6.0444-1.2-17-1.2h-15.8v-29.955l36.5-.54512v-11h-48l-.26031 49c-.14317 26.95-.0448 49.562.21861 50.25.67375 1.7585 47.586 1.806 49.342.05zm68.011-3.6239c.50891-7.073.22966-7.1761-19.434-7.1761h-17.378v-43.3c0-32.344-.30362-43.604-1.2-44.5-1.5543-1.5543-9.0457-1.5543-10.6 0-.8998.8998-1.2 13.137-1.2 48.918 0 26.245.27617 48.438.61371 49.318.54301 1.4151 3.3944 1.5685 24.75 1.3318l24.136-.26752zM436 146.238v-23.762L420.5 107C408.958 95.476 405 90.901 405 89.083c0-1.8123 3.9946-6.4644 15.5-18.051l15.5-15.61V0h255v170H436zm132.18-12.312c5.4518-2.8605 9.8858-7.3671 12.514-12.718 2.6691-5.4353 2.8021-6.3765 2.7844-19.708-.0167-12.557-.26318-14.546-2.3918-19.294-5.3462-11.924-20.426-18.436-31.744-13.706-1.9745.825-3.6686 1.5-3.7648 1.5-.13664 0 2.1222-22.724 2.3609-23.75.032-.1375 6.6956-.25689 14.808-.26531 8.1125-.0084 15.34-.38946 16.061-.84675.8678-.55034 1.2059-2.4892 1-5.7347l-.31105-4.9033-20.5-.24602c-11.275-.13531-21.054.11097-21.731.54728-1.7423 1.1228-5.6678 46.013-4.1803 47.806.59118.71233 3.0882 1.5971 5.5489 1.9661 3.6741.55096 4.8663.31387 6.6682-1.326 3.556-3.2363 6.2689-4.2473 11.378-4.2403 5.4252.0074 9.4751 2.1712 12.418 6.6347 1.6026 2.4308 1.8851 4.8047 1.8876 15.859.002 11.129-.27763 13.46-1.9457 16.196-4.1974 6.8838-11.924 8.9932-19.503 5.3244-4.9088-2.3763-7.478-6.015-8.4871-12.02l-.5882-3.5h-10.966l.0541 5c.0298 2.75.8471 6.6424 1.8163 8.6497 2.0407 4.2264 7.9231 10.414 11.833 12.448 6.0805 3.162 19.25 3.3354 24.98.32885zm62.316-1.1232c5.3385-3.4214 7.966-6.3986 10.416-11.803 1.9172-4.229 2.0401-6.4275 2.0401-36.5 0-28.838-.18019-32.395-1.8234-36-4.4738-9.814-13.196-15.531-23.579-15.456-11.322.08209-18.686 4.5309-23.523 14.211l-3.0303 6.0641.0761 31.09c.0517 21.145.4516 32.109 1.25 34.274 2.2935 6.2208 7.2422 11.92 12.795 14.736 4.8165 2.4426 6.2155 2.687 13.379 2.3369 6.4566-.31555 8.7717-.88556 12-2.9545zm-19.429-9.5544c-1.8859-.96165-4.3609-3.0181-5.5-4.5698-1.9688-2.682-2.0855-4.3-2.3632-32.76-.25622-26.26-.0875-30.37 1.3733-33.448 4.8003-10.116 17.893-10.935 24.188-1.5136 2.3064 3.452 2.3091 3.4981 2.0199 34.671l-.28956 31.214-2.5 2.6742c-5.2296 5.5939-10.849 6.8329-16.929 3.7326zM522.496 129.5v-5l-42.5-.53978v-2.7838c0-5.7191 4.8337-12.878 14.814-21.94 21.997-19.974 26.721-26.327 27.872-37.483 1.1527-11.168-5.4403-22.251-15.919-26.758-7.1398-3.0715-17.532-2.4952-24.067 1.3346-7.3479 4.3062-13.7 13.783-13.7 20.438 0 3.6026 1.64 5.2321 5.2657 5.2321 4.117 0 6.3886-1.5234 7.0297-4.7145.8579-4.2698 4.8613-9.5871 8.7244-11.588 9.0829-4.7041 20.448 2.6359 20.29 13.104-.10564 7.0022-3.4217 12.558-12.633 21.165-18.101 16.914-23.328 22.574-26.097 28.257-3.3855 6.9496-5.4662 20.533-3.7292 24.346l1.1222 2.4629 53.528-.53272z"/><path fill="#000101" d="M436 146.26v-23.738l-15.125-15.149c-12.097-12.116-15.125-15.694-15.125-17.875s3.0283-5.7592 15.125-17.875L436 56.474V-.003h255v170H436zm131.55-12.228c5.7237-2.4654 10.597-7.0547 13.476-12.691 2.3071-4.5169 2.4732-5.8519 2.4684-19.843-.006-16.603-.66122-19.203-6.5251-25.882-5.1632-5.8805-10.19-8.0197-18.97-8.0729-4.125-.02499-8.575.34221-9.8888.81601l-2.3888.86146.68551-8.3615c.37703-4.5988.93959-9.824 1.2501-11.611l.56463-3.25 14.639-.01531c8.0513-.0084 15.229-.38946 15.95-.84675.8678-.55034 1.2059-2.4892 1-5.7347l-.31105-4.9033-20.929-.27083c-11.552-.14949-21.334.13428-21.833.63334-.4973.4973-1.7987 11.146-2.892 23.664-2.1923 25.1-2.3286 24.218 4.0709 26.348 2.8736.95664 3.807.85836 5.8753-.61865 6.4259-4.589 7.9536-5.2455 12.208-5.247 5.4156-.0018 10.226 2.673 13.005 7.2319 1.7046 2.7958 1.9877 5.0506 1.9909 15.861.003 11.429-.20572 12.909-2.2463 15.898-7.7513 11.356-23.776 7.9919-27.258-5.7217l-1.2134-4.7788h-10.779l-.32056 3.921c-.62962 7.7014 5.7727 17.917 13.845 22.092 7.0834 3.663 16.755 3.8684 24.527.52104zm60.949.0159c2.2-.95093 5.7312-3.6508 7.8472-5.9996 7.171-7.9604 7.1528-7.8508 7.1528-43.05 0-30.77-.0534-31.616-2.3036-36.5-3.0178-6.5502-6.5708-10.221-12.696-13.117-13.87-6.5573-31.055.31775-36.1 14.442-1.8957 5.3081-1.8732 64.103.0266 69.427 5.1562 14.449 21.433 21.126 36.073 14.797zm-17.104-10.427c-1.7071-.77183-4.1821-2.9152-5.5-4.7631-2.3795-3.3363-2.3983-3.565-2.6894-32.705-.27705-27.739-.18241-29.574 1.7288-33.522 3.7305-7.7062 13.396-10.381 20.146-5.5751 5.625 4.0053 5.9192 5.9034 5.9151 38.16-.003 27.26-.13826 29.503-1.9523 32.478-3.7453 6.1424-11.449 8.7299-17.648 5.9272zm-88.896 5.8771v-5l-42.755-.54052.55639-3.4286c1.3361-8.2332 3.5784-10.984 27.337-33.531 10.909-10.353 14.444-16.414 15.125-25.938.38546-5.3872.0502-7.6244-1.7801-11.879-2.6772-6.2233-10.438-13.659-15.814-15.153-6.4678-1.7964-15.177-1.24-20.677 1.321-8.3719 3.8986-15.423 13.83-15.471 21.792-.02425 4.023 1.0811 4.857 6.4374 4.857 3.7736 0 4.7932-.98927 6.5097-6.316 3.6989-11.479 16.917-14.813 24.781-6.2515 2.77 3.0156 3.25 4.2836 3.25 8.585 0 8.5626-4.1717 15.291-15.5 24.999-19.546 16.75-25.919 26.059-27.13 39.632-.3509 3.9312-.34228 8.3259.0192 9.766l.65716 2.6184 54.454-.53206z"/></svg>